<?xml version="1.0" encoding="UTF-8" standalone="no"?>
<!-- Created with Inkscape (http://www.inkscape.org/) -->

<svg
   xmlns:dc="http://purl.org/dc/elements/1.1/"
   xmlns:cc="http://creativecommons.org/ns#"
   xmlns:rdf="http://www.w3.org/1999/02/22-rdf-syntax-ns#"
   xmlns:svg="http://www.w3.org/2000/svg"
   xmlns="http://www.w3.org/2000/svg"
   xmlns:sodipodi="http://sodipodi.sourceforge.net/DTD/sodipodi-0.dtd"
   xmlns:inkscape="http://www.inkscape.org/namespaces/inkscape"
   id="svg2"
   version="1.1"
   inkscape:version="0.48.4 r9939"
   width="48.553749"
   height="70.826378"
   xml:space="preserve"
   sodipodi:docname="DTU 3 SH.ai"><metadata
     id="metadata8"><rdf:RDF><cc:Work
         rdf:about=""><dc:format>image/svg+xml</dc:format><dc:type
           rdf:resource="http://purl.org/dc/dcmitype/StillImage" /><dc:title></dc:title></cc:Work></rdf:RDF></metadata><defs
     id="defs6"><clipPath
       clipPathUnits="userSpaceOnUse"
       id="clipPath16"><path
         d="m 0,841.89 595.276,0 L 595.276,0 0,0 0,841.89 z"
         id="path18"
         inkscape:connector-curvature="0" /></clipPath></defs><sodipodi:namedview
     pagecolor="#ffffff"
     bordercolor="#666666"
     borderopacity="1"
     objecttolerance="10"
     gridtolerance="10"
     guidetolerance="10"
     inkscape:pageopacity="0"
     inkscape:pageshadow="2"
     inkscape:window-width="753"
     inkscape:window-height="480"
     id="namedview4"
     showgrid="false"
     fit-margin-top="0"
     fit-margin-left="0"
     fit-margin-right="0"
     fit-margin-bottom="0"
     inkscape:zoom="2.5371819"
     inkscape:cx="34.906429"
     inkscape:cy="25.690067"
     inkscape:window-x="0"
     inkscape:window-y="24"
     inkscape:window-maximized="0"
     inkscape:current-layer="g10" /><g
     id="g10"
     inkscape:groupmode="layer"
     inkscape:label="DTU 3 SH"
     transform="matrix(1.25,0,0,-1.25,-472.20187,560.55787)"><g
       id="g12"
       style="fill:#000000;fill-opacity:1"><g
         id="g14"
         clip-path="url(#clipPath16)"
         style="fill:#000000;fill-opacity:1"><g
           id="g20"
           transform="translate(380.2627,448.4463)"
           style="fill:#000000;fill-opacity:1"><path
             d="m 0,0 c -0.154,0 -0.249,-0.047 -0.317,-0.115 -0.069,-0.069 -0.114,-0.162 -0.114,-0.318 l 0,-19.712 c 0,-0.154 0.045,-0.249 0.114,-0.317 0.068,-0.068 0.163,-0.114 0.317,-0.114 l 5.156,0 c 2.003,0 3.225,0.455 3.966,1.414 1.092,1.309 1.127,3.422 1.127,6.662 l 0,4.423 c 0,3.24 -0.035,5.353 -1.127,6.662 C 8.381,-0.456 7.159,0 5.156,0 L 0,0 z m 2.841,-2.406 1.816,0 c 0.805,0 1.283,-0.131 1.655,-0.576 0.572,-0.686 0.622,-2.073 0.622,-4.869 l 0,-4.875 c 0,-2.796 -0.05,-4.182 -0.622,-4.869 C 5.94,-18.04 5.462,-18.17 4.657,-18.17 l -1.816,0 0,15.764 z m 31.318,1.973 c 0,0.156 -0.047,0.249 -0.115,0.318 C 33.977,-0.047 33.882,0 33.728,0 l -2.411,0 c -0.154,0 -0.249,-0.047 -0.316,-0.115 -0.068,-0.069 -0.115,-0.162 -0.115,-0.318 l 0,-14.552 c 0,-1.519 -0.115,-2.422 -0.608,-2.964 -0.335,-0.367 -0.808,-0.547 -1.472,-0.547 -0.602,0 -1.058,0.167 -1.407,0.55 -0.466,0.514 -0.609,1.387 -0.609,2.961 l 0,14.552 c 0,0.156 -0.046,0.249 -0.114,0.318 C 26.607,-0.047 26.513,0 26.357,0 L 23.949,0 C 23.794,0 23.7,-0.047 23.632,-0.115 23.563,-0.184 23.518,-0.277 23.518,-0.433 l 0,-14.557 c 0,-2.119 0.288,-3.448 1.129,-4.373 0.875,-0.963 2.198,-1.473 4.202,-1.473 2.027,0 3.332,0.542 4.134,1.475 0.944,1.096 1.176,2.403 1.176,4.371 l 0,14.557 z M 18.6,-20.145 c 0,-0.154 -0.046,-0.249 -0.115,-0.317 -0.068,-0.068 -0.162,-0.114 -0.316,-0.114 l -2.637,0 c -0.154,0 -0.249,0.046 -0.316,0.114 -0.07,0.068 -0.114,0.163 -0.114,0.317 l 0,17.544 -3.097,0 c -0.155,0 -0.248,0.046 -0.317,0.114 -0.07,0.068 -0.115,0.163 -0.115,0.317 l 0,1.737 c 0,0.156 0.045,0.249 0.115,0.318 C 11.757,-0.047 11.85,0 12.005,0 l 9.691,0 c 0.155,0 0.249,-0.047 0.318,-0.115 0.067,-0.069 0.114,-0.162 0.114,-0.318 l 0,-1.737 c 0,-0.154 -0.047,-0.249 -0.114,-0.317 -0.069,-0.068 -0.163,-0.114 -0.318,-0.114 l -3.096,0 0,-17.544 z"
             style="fill:#000000;fill-opacity:1;fill-rule:nonzero;stroke:none"
             id="path22"
             inkscape:connector-curvature="0" /></g><g
           id="g24"
           transform="translate(416.6045,417.5732)"
           style="fill:#000000;fill-opacity:1"><path
             d="m 0,0 -8.267,-4.338 c -10.703,4.163 -11.605,4.163 -22.31,0 L -38.843,0 l 8.266,4.341 c 10.705,-4.165 11.607,-4.165 22.31,0 L 0,0 z m 0,-10.725 -8.267,-4.338 c -10.703,4.163 -11.605,4.163 -22.31,0 l -8.266,4.338 8.266,4.34 c 10.705,-4.164 11.607,-4.164 22.31,0 L 0,-10.725 z m 0,-10.724 -8.267,-4.339 c -10.703,4.163 -11.605,4.163 -22.31,0 l -8.266,4.339 8.266,4.338 c 10.705,-4.163 11.607,-4.163 22.31,0 L 0,-21.449"
             style="fill:#000000;fill-opacity:1;fill-rule:nonzero;stroke:none"
             id="path26"
             inkscape:connector-curvature="0" /></g></g></g></g></svg>