<?xml version="1.0" encoding="UTF-8" standalone="no"?>
<!-- Created with Inkscape (http://www.inkscape.org/) -->

<svg
   xmlns:dc="http://purl.org/dc/elements/1.1/"
   xmlns:cc="http://creativecommons.org/ns#"
   xmlns:rdf="http://www.w3.org/1999/02/22-rdf-syntax-ns#"
   xmlns:svg="http://www.w3.org/2000/svg"
   xmlns="http://www.w3.org/2000/svg"
   xmlns:sodipodi="http://sodipodi.sourceforge.net/DTD/sodipodi-0.dtd"
   xmlns:inkscape="http://www.inkscape.org/namespaces/inkscape"
   width="64px"
   height="64px"
   id="svg3295"
   version="1.1"
   inkscape:version="0.48.4 r9939"
   sodipodi:docname="New document 3">
  <defs
     id="defs3297" />
  <sodipodi:namedview
     id="base"
     pagecolor="#ffffff"
     bordercolor="#666666"
     borderopacity="1.0"
     inkscape:pageopacity="0.0"
     inkscape:pageshadow="2"
     inkscape:zoom="2.4961539"
     inkscape:cx="38.545454"
     inkscape:cy="30.545454"
     inkscape:current-layer="layer1"
     showgrid="true"
     inkscape:document-units="px"
     inkscape:grid-bbox="true"
     inkscape:window-width="881"
     inkscape:window-height="539"
     inkscape:window-x="260"
     inkscape:window-y="75"
     inkscape:window-maximized="0" />
  <metadata
     id="metadata3300">
    <rdf:RDF>
      <cc:Work
         rdf:about="">
        <dc:format>image/svg+xml</dc:format>
        <dc:type
           rdf:resource="http://purl.org/dc/dcmitype/StillImage" />
        <dc:title></dc:title>
      </cc:Work>
    </rdf:RDF>
  </metadata>
  <g
     id="layer1"
     inkscape:label="Layer 1"
     inkscape:groupmode="layer">
    <path
       style="fill:#9100a5;fill-opacity:1;stroke:#000000;stroke-width:0.29790607;stroke-linecap:butt;stroke-linejoin:miter;stroke-miterlimit:4;stroke-opacity:1;stroke-dasharray:none"
       d="m 26.098352,24.662737 c 0,0 2.402971,2.08257 0.1602,5.606941 0,0 -8.17011,0.961168 -4.645754,4.645738 0,0 0.961184,2.08257 6.888525,-1.281584 0,0 -1.121386,13.456649 2.88357,18.262589 4.004955,4.805956 9.932264,1.121385 9.932264,1.121385 0,0 6.08754,-2.402985 4.645754,-11.374066 0,0 -1.762184,-6.568124 -4.485554,-11.053664 0,0 -1.60197,-1.601999 -1.28157,-3.684569 2.7465,1.21911 10.785765,-1.05213 9.93228,-4.004956 0.320385,-1.121384 -2.40297,-1.60197 -2.40297,-1.60197 l -3.84477,1.28157 c 0,0 -3.20397,1.2816 -4.48554,0.6408 0,0 -2.082554,-4.64574 -4.48554,-8.330309 -2.40297,-3.684555 -6.888525,-0.640785 -6.888525,-0.640785 -5.767124,3.364154 -1.92237,10.41288 -1.92237,10.41288 z"
       id="path4196-1-7"
       inkscape:connector-curvature="0"
       sodipodi:nodetypes="ccccsccccccccscc"
       inkscape:export-filename="C:\Users\MetteBBrock\Dropbox\DTU\KABS 16\kabs-aubergine-prast.png"
       inkscape:export-xdpi="90"
       inkscape:export-ydpi="90" />
    <path
       style="fill:#910000;fill-opacity:1;stroke:#000000;stroke-width:0.14895304px;stroke-linecap:butt;stroke-linejoin:miter;stroke-opacity:1"
       d="m 31.865477,25.143322 c 0,0 4.966156,1.762169 5.60694,-2.723371 l -0.480584,2.082571 c 0,0 1.121384,4.966156 -5.126356,0.6408 z"
       id="path4204-2-5"
       inkscape:connector-curvature="0"
       sodipodi:nodetypes="cc"
       inkscape:export-filename="C:\Users\MetteBBrock\Dropbox\DTU\KABS 16\kabs-aubergine-prast.png"
       inkscape:export-xdpi="90"
       inkscape:export-ydpi="90" />
    <path
       style="fill:#ffffff;fill-opacity:1;stroke:#000000;stroke-width:0.14895304px;stroke-linecap:butt;stroke-linejoin:miter;stroke-opacity:1"
       d="m 31.224693,23.060751 c 0,0 -1.762186,-3.36417 -1.281586,-4.325354 0.4806,-0.9612 2.88357,3.684554 2.88357,3.684554 z"
       id="path4208-7-4"
       inkscape:connector-curvature="0"
       sodipodi:nodetypes="cscc"
       inkscape:export-filename="C:\Users\MetteBBrock\Dropbox\DTU\KABS 16\kabs-aubergine-prast.png"
       inkscape:export-xdpi="90"
       inkscape:export-ydpi="90" />
    <path
       style="fill:#ffffff;fill-opacity:1;stroke:#000000;stroke-width:0.14895304px;stroke-linecap:butt;stroke-linejoin:miter;stroke-opacity:1"
       d="m 34.149797,21.764541 c 0,0 -1.7622,-3.364154 -1.2816,-4.325354 0.4806,-0.961186 2.883571,3.68457 2.883571,3.68457 z"
       id="path4208-9-6-3"
       inkscape:connector-curvature="0"
       sodipodi:nodetypes="cscc"
       inkscape:export-filename="C:\Users\MetteBBrock\Dropbox\DTU\KABS 16\kabs-aubergine-prast.png"
       inkscape:export-xdpi="90"
       inkscape:export-ydpi="90" />
    <path
       sodipodi:type="arc"
       style="fill:#000000;fill-opacity:1;fill-rule:nonzero;stroke:#000000;stroke-width:2;stroke-miterlimit:4;stroke-opacity:1;stroke-dasharray:none;stroke-dashoffset:0"
       id="path4228-1-1"
       sodipodi:cx="1009.8892"
       sodipodi:cy="2299.9358"
       sodipodi:rx="3.2264831"
       sodipodi:ry="7.528461"
       d="m 1013.1157,2299.9358 a 3.2264831,7.528461 0 1 1 -6.453,0 3.2264831,7.528461 0 1 1 6.453,0 z"
       transform="matrix(0.14114128,-0.04760403,0.04760403,0.14114128,-220.15777,-254.44151)"
       inkscape:export-filename="C:\Users\MetteBBrock\Dropbox\DTU\KABS 16\kabs-aubergine-prast.png"
       inkscape:export-xdpi="90"
       inkscape:export-ydpi="90" />
    <path
       sodipodi:type="arc"
       style="fill:#000000;fill-opacity:1;fill-rule:nonzero;stroke:#000000;stroke-width:2;stroke-miterlimit:4;stroke-opacity:1;stroke-dasharray:none;stroke-dashoffset:0"
       id="path4228-4-4-2"
       sodipodi:cx="1009.8892"
       sodipodi:cy="2299.9358"
       sodipodi:rx="3.2264831"
       sodipodi:ry="7.528461"
       d="m 1013.1157,2299.9358 a 3.2264831,7.528461 0 1 1 -6.453,0 3.2264831,7.528461 0 1 1 6.453,0 z"
       transform="matrix(0.14114128,-0.04760403,0.04760403,0.14114128,-217.27421,-255.88334)"
       inkscape:export-filename="C:\Users\MetteBBrock\Dropbox\DTU\KABS 16\kabs-aubergine-prast.png"
       inkscape:export-xdpi="90"
       inkscape:export-ydpi="90" />
    <path
       style="fill:#009600;fill-opacity:1;stroke:#000000;stroke-width:0.29790607;stroke-linecap:butt;stroke-linejoin:miter;stroke-miterlimit:4;stroke-opacity:1;stroke-dasharray:none"
       d="m 29.286603,11.880577 c 0,0 -3.944415,-0.21912 -6.354871,-3.50613 -2.41047,-3.287009 -1.533944,-1.9722 -1.533944,-1.9722 -2.629606,3.286995 -2.629606,1.75305 -2.629606,3.286995 0,1.533931 0,1.533931 0,1.533931 0,0 7.888815,1.31481 7.450546,4.382668 -0.43827,3.067876 3.067875,-3.725264 3.067875,-3.725264 z"
       id="path4545-3"
       inkscape:connector-curvature="0"
       inkscape:export-filename="C:\Users\MetteBBrock\Dropbox\DTU\KABS 16\kabs-aubergine-prast.png"
       inkscape:export-xdpi="90"
       inkscape:export-ydpi="90" />
    <path
       style="fill:#009600;fill-opacity:1;stroke:#000000;stroke-width:0.29790607;stroke-linecap:butt;stroke-linejoin:miter;stroke-miterlimit:4;stroke-opacity:1;stroke-dasharray:none"
       d="m 26.313228,13.615897 c 0,0 -4.80594,5.606924 -2.40297,10.733265 l 2.24277,-6.728325 1.121384,4.325354 c 0,0 1.922385,-4.165154 1.922385,-5.126354 0,-0.96117 0,-0.96117 0,-0.96117 0,0 4.004955,0.96117 4.805955,0.96117 0.800985,0 -1.762185,-2.40297 -1.762185,-2.40297 0,0 4.80594,0.6408 5.28654,3.52437 0,0 -1.121384,-7.04871 -3.524355,-7.52931 -2.402969,-0.4806 -7.689524,3.20397 -7.689524,3.20397 z"
       id="path4248-2-3"
       inkscape:connector-curvature="0"
       sodipodi:nodetypes="ccccscscc"
       inkscape:export-filename="C:\Users\MetteBBrock\Dropbox\DTU\KABS 16\kabs-aubergine-prast.png"
       inkscape:export-xdpi="90"
       inkscape:export-ydpi="90" />
    <text
       xml:space="preserve"
       style="font-size:20.59007835px;font-style:normal;font-variant:normal;font-weight:bold;font-stretch:normal;line-height:125%;letter-spacing:0px;word-spacing:0px;fill:#000000;fill-opacity:1;stroke:none;font-family:Kokila;-inkscape-font-specification:Kokila Bold"
       x="2.400449"
       y="44.366684"
       id="text3845-4-3-6-20-88-1-1"
       sodipodi:linespacing="125%"
       inkscape:export-filename="C:\Users\MetteBBrock\Dropbox\DTU\KABS 16\kabs-aubergine-prast.png"
       inkscape:export-xdpi="90"
       inkscape:export-ydpi="90"
       transform="scale(1.0177222,0.9825864)"><tspan
         sodipodi:role="line"
         id="tspan3847-0-22-18-0-24-8-7"
         x="2.400449"
         y="44.366684"
         style="font-size:20.59007835px;font-style:normal;font-variant:normal;font-weight:bold;font-stretch:normal;stroke:none;font-family:Kokila;-inkscape-font-specification:Kokila Bold">KABS16 </tspan></text>
    <text
       xml:space="preserve"
       style="font-size:20.59007834999999900px;font-style:normal;font-variant:normal;font-weight:bold;font-stretch:normal;line-height:125%;letter-spacing:0px;word-spacing:0px;fill:#009600;fill-opacity:1;stroke:#000000;font-family:Kokila;-inkscape-font-specification:Kokila Bold;stroke-width:0.2;stroke-miterlimit:4;stroke-dasharray:none;stroke-opacity:1"
       x="26.277193"
       y="44.417038"
       id="text3845-4-3-6-20-88-1-9-4"
       sodipodi:linespacing="125%"
       inkscape:export-filename="C:\Users\MetteBBrock\Dropbox\DTU\KABS 16\kabs-aubergine-prast.png"
       inkscape:export-xdpi="90"
       inkscape:export-ydpi="90"
       transform="scale(1.0177222,0.9825864)"><tspan
         sodipodi:role="line"
         id="tspan3847-0-22-18-0-24-8-2-0"
         x="26.277193"
         y="44.417038"
         style="font-size:20.59007834999999900px;font-style:normal;font-variant:normal;font-weight:bold;font-stretch:normal;fill:#009600;fill-opacity:1;stroke:#000000;font-family:Kokila;-inkscape-font-specification:Kokila Bold;stroke-width:0.2;stroke-miterlimit:4;stroke-dasharray:none;stroke-opacity:1">BS </tspan></text>
  </g>
</svg>
