<?xml version="1.0" encoding="UTF-8" standalone="no"?>
<svg
   xmlns:dc="http://purl.org/dc/elements/1.1/"
   xmlns:cc="http://creativecommons.org/ns#"
   xmlns:rdf="http://www.w3.org/1999/02/22-rdf-syntax-ns#"
   xmlns:svg="http://www.w3.org/2000/svg"
   xmlns="http://www.w3.org/2000/svg"
   xmlns:xlink="http://www.w3.org/1999/xlink"
   xmlns:sodipodi="http://sodipodi.sourceforge.net/DTD/sodipodi-0.dtd"
   xmlns:inkscape="http://www.inkscape.org/namespaces/inkscape"
   width="265.841827pt"
   height="106.018387pt"
   viewBox="0 0 265.841827 106.018387"
   version="1.1"
   id="svg4320"
   inkscape:version="0.91 r13725"
   sodipodi:docname="logo-fyldt-skinne.svg"
   inkscape:export-filename="C:\Users\Henrik\Documents\KABS\vKABS\logo\vlogo.png"
   inkscape:export-xdpi="553.71429"
   inkscape:export-ydpi="553.71429">
  <metadata
     id="metadata4455">
    <rdf:RDF>
      <cc:Work
         rdf:about="">
        <dc:format>image/svg+xml</dc:format>
        <dc:type
           rdf:resource="http://purl.org/dc/dcmitype/StillImage" />
        <dc:title />
      </cc:Work>
    </rdf:RDF>
  </metadata>
  <sodipodi:namedview
     pagecolor="#ffffff"
     bordercolor="#666666"
     borderopacity="1"
     objecttolerance="10"
     gridtolerance="10"
     guidetolerance="10"
     inkscape:pageopacity="0"
     inkscape:pageshadow="2"
     inkscape:window-width="1920"
     inkscape:window-height="1027"
     id="namedview4453"
     showgrid="false"
     inkscape:zoom="2"
     inkscape:cx="163.92777"
     inkscape:cy="131.35747"
     inkscape:window-x="-8"
     inkscape:window-y="-8"
     inkscape:window-maximized="1"
     inkscape:current-layer="svg4320"
     showguides="true" />
  <defs
     id="defs4322">
    <filter
       id="alpha"
       filterUnits="objectBoundingBox"
       x="0%"
       y="0%"
       width="100%"
       height="100%">
      <feColorMatrix
         type="matrix"
         in="SourceGraphic"
         values="0 0 0 0 1 0 0 0 0 1 0 0 0 0 1 0 0 0 1 0"
         id="feColorMatrix4325" />
    </filter>
    <clipPath
       id="clip1">
      <rect
         width="210"
         height="51"
         id="rect4328" />
    </clipPath>
    <g
       id="surface4800"
       clip-path="url(#clip1)">
      <rect
         x="0"
         y="0"
         width="210"
         height="51"
         style="fill:rgb(0%,0%,0%);fill-opacity:0.25;stroke:none;"
         id="rect4331" />
    </g>
    <mask
       id="mask0">
      <g
         filter="url(#alpha)"
         id="g4334">
        <use
           xlink:href="#surface4800"
           id="use4336" />
      </g>
    </mask>
    <clipPath
       id="clip2">
      <rect
         width="210"
         height="51"
         id="rect4339" />
    </clipPath>
    <g
       id="surface4797"
       clip-path="url(#clip2)">
      <path
         style=" stroke:none;fill-rule:nonzero;fill:rgb(0%,0%,0%);fill-opacity:1;"
         d="M 0.78125 49.5625 L 1.699219 48.796875 L 7.585938 48.796875 L 7.585938 26.972656 L 11.71875 26.972656 L 12.3125 28.320313 L 9.183594 28.320313 L 9.183594 49.34375 C 9.167969 49.628906 9.003906 49.800781 8.8125 49.925781 C 8.570313 50.082031 8.304688 50.0625 7.960938 50.0625 L 1.382813 50.0625 C 1.015625 50.078125 0.78125 49.5625 0.78125 49.5625 Z M 0.78125 49.5625 "
         id="path4342" />
      <path
         style=" stroke:none;fill-rule:nonzero;fill:rgb(0%,0%,0%);fill-opacity:1;"
         d="M 9.171875 21.039063 L 7.546875 22.09375 L 7.546875 0.945313 L 9.09375 0.445313 Z M 9.171875 21.039063 "
         id="path4344" />
      <path
         style=" stroke:none;fill-rule:nonzero;fill:rgb(0%,0%,0%);fill-opacity:1;"
         d="M 25.714844 49.746094 L 26.710938 48.523438 L 33.539063 48.523438 L 34.761719 49.746094 L 34.316406 50.078125 L 26.046875 50.078125 Z M 25.714844 49.746094 "
         id="path4346" />
      <path
         style=" stroke:none;fill-rule:nonzero;fill:rgb(0%,0%,0%);fill-opacity:1;"
         d="M 37.164063 50.070313 L 44.15625 50.070313 C 44.550781 50.070313 45.046875 49.78125 45.132813 49.496094 L 48.4375 37.804688 L 62.53125 37.75 L 63.25 36.472656 L 47.429688 36.472656 L 43.894531 48.636719 L 37.996094 48.636719 Z M 37.164063 50.070313 "
         id="path4348" />
      <path
         style=" stroke:none;fill-rule:nonzero;fill:rgb(0%,0%,0%);fill-opacity:1;"
         d="M 50.464844 30.660156 L 49.0625 30.953125 L 55.195313 10.15625 L 55.355469 13.628906 Z M 50.464844 30.660156 "
         id="path4350" />
      <path
         style=" stroke:none;fill-rule:nonzero;fill:rgb(0%,0%,0%);fill-opacity:1;"
         d="M 66.320313 49.84375 L 66.710938 50.082031 L 73.660156 50.042969 L 74.246094 49.726563 L 73.34375 48.433594 L 67.066406 48.433594 Z M 66.320313 49.84375 "
         id="path4352" />
      <path
         style=" stroke:none;fill-rule:nonzero;fill:rgb(0%,0%,0%);fill-opacity:1;"
         d="M 78.730469 49.753906 L 79.667969 48.371094 L 96.476563 48.371094 C 106.125 48.371094 109.785156 40.105469 109.855469 36.648438 C 109.503906 43.882813 105.210938 49.652344 95.84375 50.070313 L 79.222656 50.050781 Z M 78.730469 49.753906 "
         id="path4354" />
      <path
         style=" stroke:none;fill-rule:nonzero;fill:rgb(0%,0%,0%);fill-opacity:1;"
         d="M 87.082031 42.988281 L 85.648438 44.109375 L 85.648438 25.777344 L 95.625 25.777344 C 99.367188 25.777344 101.113281 29.882813 101.289063 33.414063 C 101.007813 31.28125 99.960938 27.503906 95.660156 27.46875 L 87.0625 27.46875 Z M 87.082031 42.988281 "
         id="path4356" />
      <path
         style=" stroke:none;fill-rule:nonzero;fill:rgb(0%,0%,0%);fill-opacity:1;"
         d="M 87.0625 20.632813 L 85.578125 21.75 L 85.578125 5.148438 L 93.382813 5.148438 C 97.125 5.148438 99.722656 7.820313 99.703125 12.785156 C 99.519531 9.613281 97.714844 6.878906 93.417969 6.84375 L 86.992188 6.84375 Z M 87.0625 20.632813 "
         id="path4358" />
      <path
         style=" stroke:none;fill-rule:nonzero;fill:rgb(0%,0%,0%);fill-opacity:1;"
         d="M 124.8125 50.398438 C 127.257813 50.398438 127.828125 49.21875 128.902344 49.175781 C 136.121094 48.902344 142.421875 45.527344 144.214844 39.75 C 144.472656 38.921875 144.640625 38.042969 144.699219 37.117188 C 144.804688 44.5625 139.394531 50.679688 128.867188 50.820313 C 127.507813 50.835938 126.386719 50.644531 124.8125 50.398438 Z M 124.8125 50.398438 "
         id="path4360" />
      <path
         style=" stroke:none;fill-rule:nonzero;fill:rgb(0%,0%,0%);fill-opacity:1;"
         d="M 122.03125 14.875 C 121.613281 14.457031 120.03125 14.035156 120.003906 12.777344 C 119.910156 8.207031 123.140625 4.34375 128.308594 4.398438 C 132.601563 4.441406 134.710938 6.695313 134.933594 9.511719 C 134.46875 8.792969 133.3125 5.902344 128.261719 6.078125 C 124.0625 6.222656 121.894531 9.125 121.785156 12.800781 C 121.765625 13.496094 121.734375 13.863281 122.03125 14.875 Z M 122.03125 14.875 "
         id="path4362" />
      <path
         style=" stroke:none;fill-rule:nonzero;fill:rgb(0%,0%,0%);fill-opacity:1;"
         d="M 136.4375 15.421875 L 137.574219 14.035156 L 142.9375 14.011719 C 142.9375 14.011719 144.097656 12.007813 143.0625 7.683594 C 143.554688 8.671875 144.601563 11.164063 144.539063 14.578125 C 144.535156 14.839844 144.429688 15.140625 144.246094 15.347656 C 144.09375 15.519531 143.863281 15.667969 143.628906 15.667969 C 141.328125 15.664063 139.203125 15.664063 136.929688 15.667969 C 136.6875 15.667969 136.4375 15.421875 136.4375 15.421875 Z M 136.4375 15.421875 "
         id="path4364" />
      <path
         style=" stroke:none;fill-rule:nonzero;fill:rgb(0%,0%,0%);fill-opacity:1;"
         d="M 159.335938 49.972656 L 160.71875 48.242188 L 165.835938 48.242188 L 165.835938 2.125 L 167.195313 0.0976563 L 167.542969 0.589844 L 167.542969 49.332031 L 167.21875 49.972656 L 166.601563 50.144531 L 159.757813 50.144531 Z M 159.335938 49.972656 "
         id="path4366" />
      <path
         style=" stroke:none;fill-rule:nonzero;fill:rgb(0%,0%,0%);fill-opacity:1;"
         d="M 149.84375 8.820313 L 150.636719 7.734375 L 159.507813 6.96875 L 158.894531 8.460938 L 150.316406 9.070313 Z M 149.84375 8.820313 "
         id="path4368" />
      <path
         style=" stroke:none;fill-rule:nonzero;fill:rgb(0%,0%,0%);fill-opacity:1;"
         d="M 191.339844 18.453125 C 190.042969 19.550781 189.976563 20.09375 189.976563 20.09375 L 191.179688 5.484375 L 207.035156 5.519531 L 207.035156 1.011719 L 208.1875 0.136719 L 208.433594 0.625 L 208.433594 6.324219 L 208.125 7.042969 L 207.480469 7.191406 L 192.28125 7.191406 Z M 191.339844 18.453125 "
         id="path4370" />
      <path
         style=" stroke:none;fill-rule:nonzero;fill:rgb(0%,0%,0%);fill-opacity:1;"
         d="M 182.882813 27.925781 L 183.652344 27.191406 L 189.402344 27.765625 C 189.800781 25.652344 191.722656 22.324219 195.359375 22.367188 C 199.722656 22.417969 201.894531 25.476563 201.527344 34.023438 C 201.511719 27.382813 199.15625 23.714844 195.464844 23.921875 C 191.636719 24.136719 190.777344 26.1875 190.222656 28.222656 L 189.851563 28.789063 L 189.210938 28.917969 L 183.300781 28.308594 Z M 182.882813 27.925781 "
         id="path4372" />
      <path
         style=" stroke:none;fill-rule:nonzero;fill:rgb(0%,0%,0%);fill-opacity:1;"
         d="M 191.285156 50.175781 C 193.734375 50.175781 194.195313 49.167969 195.273438 49.125 C 203.527344 48.8125 208.46875 43.570313 209.953125 35.390625 C 209.464844 42.367188 206.359375 50.734375 195.238281 50.769531 C 193.878906 50.773438 192.859375 50.421875 191.285156 50.175781 Z M 191.285156 50.175781 "
         id="path4374" />
      <path
         style=" stroke:none;fill-rule:nonzero;fill:rgb(0%,0%,0%);fill-opacity:1;"
         d="M 100.648438 23.542969 L 103.171875 23.542969 C 103.84375 23.484375 105.851563 21.558594 106.703125 20.070313 C 107.914063 17.957031 108.542969 15.835938 108.382813 13.117188 C 108.3125 19.523438 103.460938 23.101563 100.648438 23.542969 Z M 100.648438 23.542969 "
         id="path4376" />
      <path
         style=" stroke:none;fill-rule:nonzero;fill:rgb(0%,0%,0%);fill-opacity:1;"
         d="M 19.039063 23.582031 L 18.492188 21.566406 L 32.480469 1.101563 L 33.988281 0.460938 L 34.015625 1.003906 Z M 19.039063 23.582031 "
         id="path4378" />
    </g>
  </defs>
  <path
     style="color:#000000;font-style:normal;font-variant:normal;font-weight:normal;font-stretch:normal;font-size:medium;line-height:normal;font-family:sans-serif;text-indent:0;text-align:start;text-decoration:none;text-decoration-line:none;text-decoration-style:solid;text-decoration-color:#000000;letter-spacing:normal;word-spacing:normal;text-transform:none;direction:ltr;block-progression:tb;writing-mode:lr-tb;baseline-shift:baseline;text-anchor:start;white-space:normal;clip-rule:nonzero;display:inline;overflow:visible;visibility:visible;opacity:0.22000002;isolation:auto;mix-blend-mode:normal;color-interpolation:sRGB;color-interpolation-filters:linearRGB;solid-color:#000000;solid-opacity:1;fill:#332b26;fill-opacity:1;fill-rule:nonzero;stroke:none;stroke-width:6.73759985;stroke-linecap:butt;stroke-linejoin:round;stroke-miterlimit:4;stroke-dasharray:none;stroke-dashoffset:0;stroke-opacity:1;color-rendering:auto;image-rendering:auto;shape-rendering:auto;text-rendering:auto;enable-background:accumulate"
     d="m 16.453125,9 0,4.575 -6.929687,0 0,4.5 248.875002,0 0,-4.5 -8.10157,0 0,-4.575 -8.98437,0 0,4.575 -13.47656,0 0,-4.575 -8.97969,0 0,4.575 -13.47656,0 0,-4.575 -8.98594,0 0,4.575 -13.475,0 0,-4.575 -8.98125,0 0,4.575 -13.74532,0 0,-4.575 -8.98593,0 0,4.575 -13.475,0 0,-4.575 -8.98125,0 0,4.575 -13.47656,0 0,-4.575 -8.98438,0 0,4.575 -13.476564,0 0,-4.575 -8.981248,0 0,4.575 -13.474998,0 0,-4.575 -8.984375,0 0,4.575 -13.478125,0 0,-4.575 -8.979688,0 0,4.575 -13.476562,0 0,-4.575 -8.984375,0 z m 0,9.08125 c 0.996094,28.378907 -0.90625,47.11875 0,71.86875 l -6.929687,0 0,4.475 248.875002,0 0,-4.475 -8.10157,0 c 0.1133,-30.171875 0.1133,-38.860937 0,-71.86875 l -8.98437,0 c 0.46892,10.330044 0.30685,23.190135 0.14063,38.051563 -0.6065,-1.605013 -1.39881,-3.082593 -2.4,-4.409375 l 0,-0.0016 c -2.73007,-3.61964 -6.99042,-5.612729 -11.62657,-5.573437 0.0155,-1.615659 0.0354,-3.103427 0.0531,-4.653125 l 10.68125,0 a 3.3691368,3.3691368 0 0 0 3.36875,-3.368751 l 0,-5.546875 a 3.3691368,3.3691368 0 0 0 -3.36875,-3.370312 l -10.51876,0 c 0.10334,-6.582013 0.19376,-11.128124 0.19376,-11.128125 l -8.97969,0 c 0.21428,2.94548 0.33132,6.796394 0.39219,11.128125 l -2.775,0 a 3.3691368,3.3691368 0 0 0 -3.35469,3.078125 l -2.3125,26.625 a 3.3691368,3.3691368 0 0 0 3.02813,3.645313 l 5.18437,0.503125 c -0.009,0.538172 -0.0146,0.996876 -0.0234,1.528124 l -5.48593,0.121876 a 3.3691368,3.3691368 0 0 0 -3.05313,2.115624 l -0.0625,0.156251 a 3.3691368,3.3691368 0 0 0 -0.24062,1.185937 c -0.0989,4.978783 1.40292,9.441404 4.66562,12.470312 6.8e-4,6.29e-4 0.002,0.0024 0.003,0.0031 l 0.002,0.0016 c 1.18151,1.098762 2.50547,1.990706 3.93125,2.678122 -0.006,2.881448 0.013,5.324824 0.10156,6.628128 l -13.47656,0 c -1.25,-23.933594 0.5664,-67.446874 0,-71.86875 l -8.98594,0 c 0.13895,3.597682 0.14233,7.33112 0.0734,11.171875 l -13.17343,2.482813 c 0.008,-4.212389 -0.0858,-8.624923 -0.375,-13.654688 l -8.98125,0 c 0.28326,3.088724 0.32915,9.409124 0.28125,16.945312 -0.34806,-0.434248 -0.7178,-0.855335 -1.11093,-1.260937 l -0.002,-0.0016 c -3.29659,-3.404323 -7.84187,-5.178607 -12.89063,-5.251562 -0.0115,-3.81479 -0.007,-5.778178 -0.0234,-10.43125 l -8.98593,0 c 0.16918,3.727026 0.24425,7.810111 0.27813,12.123437 -1.60317,0.717275 -3.07952,1.660074 -4.39063,2.835938 -3.37585,3.028125 -5.2125,7.274912 -5.2125,11.88125 0,4.44152 1.63598,8.530919 4.7625,11.403125 a 3.3691368,3.3691368 0 0 0 0.003,0.0031 c 1.34551,1.232139 2.9103,2.308158 4.66563,3.2625 -0.0139,1.298651 -0.0262,2.541368 -0.0391,3.873437 a 3.3691368,3.3691368 0 0 0 -0.58438,-0.05156 l -6.46875,0 a 3.3691368,3.3691368 0 0 0 -1.85781,0.5625 c -0.38448,-2.220117 -1.16476,-4.30689 -2.37188,-6.157813 -0.70247,-1.077098 -1.59674,-1.982384 -2.57031,-2.789062 0.4518,-0.497936 0.98409,-0.91969 1.35625,-1.485938 1.53411,-2.318945 2.30782,-5.074902 2.30782,-7.948437 0,-4.256158 -1.18089,-8.103709 -3.62813,-10.934375 0.13287,-9.584992 0.275,-16.578125 0.275,-16.578125 l -8.98125,0 c 0.22575,3.103237 0.34913,7.186157 0.40625,11.807812 -1.85336,-0.450202 -3.8448,-0.679687 -5.95625,-0.679687 l -7.8875,0 c 0.086,-5.68814 0.11302,-9.940806 -0.0391,-11.128125 l -8.98438,0 c 0.61865,16.017772 -1.37413,34.568279 -0.99219,54.604688 L 93.184376,32.940625 c 0.03002,-4.574279 -0.05499,-9.349011 -0.37188,-14.859375 l -8.981248,0 c 0.207272,2.260108 0.28944,6.233688 0.301568,11.128125 l -1.09688,0 a 3.3691368,3.3691368 0 0 0 -3.220311,2.379687 l -9.3,30.225 C 70.29808,43.626903 69.880582,23.18472 70.35625,18.08125 l -8.984375,0 c -0.134224,2.423212 -0.190188,6.506578 -0.217188,11.128125 l -5.326562,0 a 3.3691368,3.3691368 0 0 0 -2.885938,1.632812 l -5.175,8.604688 C 47.878008,28.222734 47.974539,18.648165 47.89375,18.08125 l -8.979688,0 c 0.148516,0.476275 0.22342,4.854968 0.256251,11.132812 a 3.3691368,3.3691368 0 0 0 -0.139063,-0.0047 l -6.734375,0 a 3.3691368,3.3691368 0 0 0 -3.36875,3.36875 l 0,48.34375 a 3.3691368,3.3691368 0 0 0 3.36875,3.370309 l 6.660938,0 c -0.01388,1.704968 -0.03403,4.538128 -0.04375,5.657816 l -13.476562,0 c 0,-23.953125 -1.171875,-48.290624 0,-71.86875 l -8.984375,0 z m 177.354695,18.529688 0,2.251562 A 3.3691368,3.3691368 0 0 0 192.725,36.814062 l 1.08282,-0.203124 z m -33.56407,3.803124 c 1.5755,0.06499 2.3488,0.4961 3.09531,1.401563 a 3.3691368,3.3691368 0 0 0 0.003,0.0031 c 0.8992,1.087227 1.41407,2.481837 1.41407,4.696875 a 3.3691368,3.3691368 0 0 0 3.37031,3.370313 l 5.92188,0 c -0.0371,2.467948 -0.0707,4.87103 -0.10938,7.340624 -0.0177,-0.01836 -0.0338,-0.03797 -0.0516,-0.05625 -2.80823,-2.893903 -6.66032,-4.980643 -11.39688,-6.468751 -0.82044,-0.278872 -1.55963,-0.565713 -2.22656,-0.853124 -0.002,-2.622368 -0.0146,-6.565701 -0.0203,-9.434376 z m -40.40937,0.706251 3.36562,0 c 1.96266,0 2.85019,0.440478 3.39687,0.995312 a 3.3691368,3.3691368 0 0 0 0.0156,0.01406 c 0.52863,0.530195 1,1.494278 1,3.589063 0,1.966316 -0.44195,2.920992 -0.9875,3.498437 a 3.3691368,3.3691368 0 0 0 0,0.0031 c -0.58622,0.620701 -1.22183,0.942187 -2.75313,0.942187 l -4.03749,0 0,-9.042187 z m -58.675005,1.646874 c 0.04926,8.958633 0.136135,17.905998 0.214063,26.260938 L 52.682813,55.54375 61.159375,42.767187 Z m 125.945315,0.151563 0,38.065625 a 3.3691368,3.3691368 0 0 0 3.36875,3.370313 l 5.44218,0 c 0.13349,1.85552 0.28653,3.719456 0.47813,5.595312 l -13.475,0 c -0.87241,-22.444324 -0.2392,-35.161249 0.14375,-46.757813 l 4.04219,-0.273437 z M 148.62344,44.9 c 0.005,1.379498 0.29426,2.739278 0.8125,4.004687 -0.5124,-1.103446 -0.81563,-2.361143 -0.81563,-3.982812 0,-0.0085 0.003,-0.01384 0.003,-0.02188 z M 35.667187,53.903125 a 3.3691368,3.3691368 0 0 0 1.360938,2.628125 3.3691368,3.3691368 0 0 0 -1.360938,2.584375 l 0,-5.2125 z m 182.306253,0.3375 a 3.3691368,3.3691368 0 0 0 0.61874,0.740625 c -0.24572,0.334728 -0.5681,0.610651 -0.76874,0.976563 l 0.15,-1.717188 z m 9.37187,4.1375 c 0.3005,0.166345 0.53498,0.482371 0.89375,1.09375 a 3.3691368,3.3691368 0 0 0 0.005,0.0063 c 0.74564,1.264573 1.26719,3.246162 1.26719,6.070313 0,3.062871 -0.53156,5.176115 -1.2125,6.376562 -0.35877,0.628542 -0.58102,0.9267 -0.925,1.071875 -0.0408,-4.613784 -0.046,-9.572456 -0.0281,-14.61875 z m 7.74531,0.384375 c 0.16612,0.449271 0.3805,0.822634 0.50938,1.326562 -0.11676,-0.474507 -0.35518,-0.874969 -0.50938,-1.326562 z m -115.25624,2.982813 5.95937,0 c 1.5153,0 1.84967,0.247108 2.33594,0.951562 a 3.3691368,3.3691368 0 0 0 0.006,0.0047 c 0.29879,0.430891 0.5632,1.002153 0.75468,1.742188 -0.033,1.97876 -0.0593,3.829502 -0.0891,5.684375 -0.19177,0.539517 -0.43554,0.948972 -0.70625,1.25625 a 3.3691368,3.3691368 0 0 0 -0.003,0 c -0.61368,0.697091 -1.29529,1.059375 -2.98593,1.059375 l -5.27187,0 0,-10.698437 z m 40.42187,1.471874 c 1.82087,0.799063 2.97564,1.606834 3.46562,2.164063 a 3.3691368,3.3691368 0 0 0 0.003,0.0047 c 0.71772,0.813419 1.09375,1.73682 1.09375,3.379687 0,1.695128 -0.38441,2.528516 -1.13281,3.26875 -0.70641,0.688799 -1.63223,1.108461 -3.45312,1.125 0.008,-3.205 0.0197,-7.0295 0.0234,-9.942188 z m -64.587498,0.989063 0.648432,2.125 a 3.3691368,3.3691368 0 0 0 -1.320312,-0.817188 3.3691368,3.3691368 0 0 0 0.67188,-1.307812 z m -18.840627,0.0063 a 3.3691368,3.3691368 0 0 0 0.65625,1.285938 A 3.3691368,3.3691368 0 0 0 76.19375,66.275 l 0.634375,-2.0625 z m 94.065625,0.504687 c 0.43354,1.127058 0.65938,2.417616 0.65938,3.985938 0,0.0078 -0.003,0.01249 -0.003,0.02031 -0.004,-1.384247 -0.23568,-2.735811 -0.65625,-4.006251 z m 65.33594,0.640626 c 2.1e-4,0.04915 0.0156,0.07864 0.0156,0.128125 0,0.0038 -0.003,0.0056 -0.003,0.0094 -8e-5,-0.04847 -0.0122,-0.08918 -0.0125,-0.1375 z m -88.43125,4.793749 0.0578,0 c 0.0326,0.165172 0.0419,0.338962 0.0797,0.501563 -0.0452,-0.168253 -0.10058,-0.325475 -0.1375,-0.501563 z m -66.740624,1.921876 2.579688,0 C 83.55436,80.2786 83.55692,87.112544 83.831248,89.95 l -13.474998,0 c 0.104131,-1.394544 0.169434,-3.35528 0.2125,-5.657816 l 4.435937,0 a 3.3691368,3.3691368 0 0 0 3.239063,-2.437496 l 2.814066,-9.78125 z m -33.509378,0.1 6.368749,10.496874 a 3.3691368,3.3691368 0 0 0 2.879688,1.621872 l 4.671875,0 c -0.0049,2.750736 -0.02674,4.938384 -0.09688,5.657816 l -13.478125,0 C 47.617928,88.638656 47.542306,81.354776 47.548438,72.173438 Z m 8.610937,1.2 2.69375,4.179687 -0.159375,0 -2.534375,-4.179687 z m 85.610935,0.0375 c 0.96847,2.760567 2.62839,5.177337 4.94531,7.021875 a 3.3691368,3.3691368 0 0 0 0.005,0.0031 c 1.38514,1.099366 2.88359,1.998022 4.46719,2.703126 0.004,2.255944 10e-4,4.477592 0.0188,6.810936 l -13.475,0 c -0.16534,-2.499976 -0.27843,-5.862976 -0.35781,-9.678125 0.14637,-0.125661 0.29261,-0.250969 0.43438,-0.382813 1.8749,-1.743491 3.18268,-3.955697 3.96249,-6.478124 z m 99.52656,1.507812 c -0.019,4.840317 -0.0232,9.802922 0.0156,15.03125 l -13.47656,0 c -0.093,-1.407016 -0.16532,-3.14288 -0.22969,-5.006248 4.5834,-0.317216 8.64233,-2.269864 11.28125,-5.743752 l 0.005,-0.0063 c 0.98984,-1.29928 1.78201,-2.734403 2.40469,-4.275 z m -148.865622,0.74375 1.790624,6.195316 a 3.3691368,3.3691368 0 0 0 3.235944,2.434368 l 6.828124,0 a 3.3691368,3.3691368 0 0 0 1.49688,-0.359368 c 0.1392,1.99496 0.30007,3.998608 0.50624,6.017184 l -13.476564,0 C 92.60744,84.674488 92.4922,79.978044 92.431248,75.6625 Z m 81.257812,4.442187 c 0.003,4.476177 0.0693,7.991969 0.24844,9.845313 l -13.74532,0 c 0.008,-2.144896 0.006,-3.013608 0.0125,-4.957816 4.98256,-0.01448 9.44127,-1.39392 12.82969,-4.290622 a 3.3691368,3.3691368 0 0 0 0.003,-0.0031 c 0.22419,-0.192301 0.44118,-0.390006 0.65156,-0.593751 z m -45.04531,3.935937 c -3e-4,2.565968 0.0245,4.70576 0.10625,5.909376 l -13.47656,0 c -0.0928,-1.777152 -0.16377,-3.688792 -0.225,-5.657816 l 10.05781,0 c 1.21637,0 2.39702,-0.0845 3.5375,-0.25156 z m -112.190625,10.4 0,4.578128 8.984375,0 0,-4.578128 -8.984375,0 z m 22.460937,0 0,4.578128 8.979688,0 0,-4.578128 -8.979688,0 z m 22.457813,0 0,4.578128 8.984375,0 0,-4.578128 -8.984375,0 z m 22.459373,0 0,4.578128 8.981248,0 0,-4.578128 -8.981248,0 z m 22.457812,0 0,4.578128 8.98438,0 0,-4.578128 -8.98438,0 z m 22.46094,0 0,4.578128 8.98125,0 0,-4.578128 -8.98125,0 z m 22.45625,0 0,4.578128 8.98593,0 0,-4.578128 -8.98593,0 z m 22.73125,0 0,4.578128 8.98125,0 0,-4.578128 -8.98125,0 z m 22.45625,0 0,4.578128 8.98594,0 0,-4.578128 -8.98594,0 z m 22.4625,0 0,4.578128 8.97969,0 0,-4.578128 -8.97969,0 z m 22.45625,0 0,4.578128 8.98437,0 0,-4.578128 -8.98437,0 z"
     id="path5830"
     inkscape:connector-curvature="0" />
  <path
     inkscape:connector-curvature="0"
     id="path4381"
     d="m 172.9375,8 0,4.589844 8.98047,0 0,-4.589844 z m 22.45703,0 0,4.589844 8.98438,0 0,-4.589844 z m 22.46094,0 0,4.589844 8.98047,0 0,-4.589844 z m 22.45703,0 0,4.589844 8.98437,0 0,-4.589844 z m -67.375,9.082031 c 1.01953,11.117188 -0.91016,62.453125 0,71.867188 l 8.98047,0 c -1.47266,-37.886719 1.36328,-48.160156 0,-71.867188 z m 22.45703,0 c 0.79297,20.53125 -2.72266,45.210938 0,71.867188 l 8.98438,0 c -1.25,-23.933594 0.5664,-67.445313 0,-71.867188 z m 22.46094,0 c 1.24609,17.128907 -0.57031,63.472657 0,71.867188 l 8.98047,0 c -1.13282,-17.128906 0,-71.867188 0,-71.867188 z m 22.45703,0 c 0.79297,17.46875 -0.22656,41.355469 0,71.867188 l 8.98437,0 c 0.11329,-30.171875 0.11329,-38.859375 0,-71.867188 z m -67.375,76.359375 0,4.578125 8.98047,0 0,-4.578125 z m 22.45703,0 0,4.578125 8.98438,0 0,-4.578125 z m 22.46094,0 0,4.578125 8.98047,0 0,-4.578125 z m 22.45703,0 0,4.578125 8.98437,0 0,-4.578125 z m 0,0"
     style="fill:#8f7a6e;fill-opacity:1;fill-rule:nonzero;stroke:none" />
  <path
     style="fill:#6f5f56;fill-opacity:1;fill-rule:evenodd;stroke:none;stroke-width:0.80000001px;stroke-linecap:butt;stroke-linejoin:miter;stroke-opacity:1"
     d="m 195.58797,97.668384 8.5,0 c -0.61876,-27.179517 -0.41411,-48.30997 0.18485,-80.217307 0.0563,-3.000559 -0.26506,-6.066092 -0.18485,-9.2826914 l -0.75,0.65 c 0.32622,32.8442484 -0.95504,62.5632484 0,87.9999984 l -7.25,0 z"
     id="path4363"
     inkscape:connector-curvature="0"
     sodipodi:nodetypes="ccsccccc" />
  <path
     sodipodi:nodetypes="ccccccc"
     inkscape:connector-curvature="0"
     id="path4365"
     d="m 218.07397,97.668384 8.5,0 c -0.1487,-30.588727 -0.69707,-50.89831 0,-89.4999984 l -0.75,0.65 c -1.17378,30.0442484 -0.20504,60.8132484 0,87.9999984 l -7.25,0 z"
     style="fill:#6f5f56;fill-opacity:1;fill-rule:evenodd;stroke:none;stroke-width:0.80000001px;stroke-linecap:butt;stroke-linejoin:miter;stroke-opacity:1" />
  <path
     style="fill:#6f5f56;fill-opacity:1;fill-rule:evenodd;stroke:none;stroke-width:0.80000001px;stroke-linecap:butt;stroke-linejoin:miter;stroke-opacity:1"
     d="m 240.55997,97.668384 8.5,0 c 0.0418,-30.620472 0.15405,-51.040163 0,-89.4999984 l -0.75,0.65 c -0.10293,30.0442484 0.1543,60.8132484 0,87.9999984 l -7.25,0 z"
     id="path5807"
     inkscape:connector-curvature="0"
     sodipodi:nodetypes="ccccccc" />
  <path
     sodipodi:nodetypes="ccssccccc"
     inkscape:connector-curvature="0"
     id="path4361"
     d="m 173.10197,97.668384 8.5,0 c -0.53118,-17.538938 -0.64411,-31.472116 -0.19619,-44.894637 0.45712,-13.698488 0.89743,-22.439012 0.32187,-35.144462 -0.13881,-3.064279 -0.0735,-6.216295 -0.12568,-9.4608994 l -0.75,0.65 c -0.39596,32.3777004 -0.77073,64.3487824 0,87.9999984 l -7.25,0 z"
     style="fill:#6f5f56;fill-opacity:1;fill-rule:evenodd;stroke:none;stroke-width:0.80000001px;stroke-linecap:butt;stroke-linejoin:miter;stroke-opacity:1" />
  <path
     inkscape:connector-curvature="0"
     id="path4383"
     d="m 15.453125,8 0,4.589844 8.984375,0 0,-4.589844 z m 22.460938,0 0,4.589844 8.980468,0 0,-4.589844 z m 22.457031,0 0,4.589844 8.984375,0 0,-4.589844 z m 22.460937,0 0,4.589844 8.980469,0 0,-4.589844 z m 22.457029,0 0,4.589844 8.98438,0 0,-4.589844 z m 22.46094,0 0,4.589844 8.98047,0 0,-4.589844 z m 22.45703,0 0,4.589844 8.98438,0 0,-4.589844 z M 15.453125,17.082031 c 0.996094,28.378907 -0.90625,47.117188 0,71.867188 l 8.984375,0 c 0,-23.953125 -1.171875,-48.289063 0,-71.867188 z m 22.460938,0 c 0.566406,1.816407 0.113281,58.824219 0,71.867188 l 8.980468,0 c -0.90625,-4.308594 0.226563,-70.277344 0,-71.867188 z m 22.457031,0 c -0.730469,13.1875 0.453125,67.21875 0,71.867188 l 8.984375,0 c 0.90625,-12.136719 -0.792969,-63.359375 0,-71.867188 z m 22.460937,0 c 1.019532,11.117188 -0.910156,62.453125 0,71.867188 l 8.980469,0 c -1.472656,-37.886719 1.363281,-48.160156 0,-71.867188 z m 22.457029,0 c 0.79297,20.53125 -2.72265,45.210938 0,71.867188 l 8.98438,0 c -1.25,-23.933594 0.5664,-67.445313 0,-71.867188 z m 22.46094,0 c 1.24609,17.128907 -0.57031,63.472657 0,71.867188 l 8.98047,0 c -1.13281,-17.128906 0,-71.867188 0,-71.867188 z m 22.45703,0 c 0.79297,17.46875 -0.22656,41.355469 0,71.867188 l 8.98438,0 c 0.11328,-30.171875 0.11328,-38.859375 0,-71.867188 z m -134.753905,76.359375 0,4.578125 8.984375,0 0,-4.578125 z m 22.460938,0 0,4.578125 8.980468,0 0,-4.578125 z m 22.457031,0 0,4.578125 8.984375,0 0,-4.578125 z m 22.460937,0 0,4.578125 8.980469,0 0,-4.578125 z m 22.457029,0 0,4.578125 8.98438,0 0,-4.578125 z m 22.46094,0 0,4.578125 8.98047,0 0,-4.578125 z m 22.45703,0 0,4.578125 8.98438,0 0,-4.578125 z m 0,0"
     style="fill:#8f7a6e;fill-opacity:1;fill-rule:nonzero;stroke:none" />
  <path
     style="fill:#6f5f56;fill-opacity:1;fill-rule:evenodd;stroke:none;stroke-width:0.80000001px;stroke-linecap:butt;stroke-linejoin:miter;stroke-opacity:1"
     d="m 150.33313,97.668384 8.5,0 c 0.1513,-30.518423 -0.0332,-52.278722 0,-89.4999984 l -0.75,0.65 c 0.12622,30.8442484 -0.20504,60.8132484 0,87.9999984 l -7.25,0 z"
     id="path4359"
     inkscape:connector-curvature="0"
     sodipodi:nodetypes="ccccccc" />
  <path
     sodipodi:nodetypes="ccccccc"
     inkscape:connector-curvature="0"
     id="path4357"
     d="m 127.98856,97.668384 8.5,0 c -0.53154,-27.32492 -0.48318,-40.778722 0,-89.4999984 l -0.75,0.65 c -0.57378,29.7442484 -0.65504,60.4632484 0,87.9999984 l -7.25,0 z"
     style="fill:#6f5f56;fill-opacity:1;fill-rule:evenodd;stroke:none;stroke-width:0.80000001px;stroke-linecap:butt;stroke-linejoin:miter;stroke-opacity:1" />
  <path
     style="fill:#6f5f56;fill-opacity:1;fill-rule:evenodd;stroke:none;stroke-width:0.80000001px;stroke-linecap:butt;stroke-linejoin:miter;stroke-opacity:1"
     d="m 105.36114,97.668384 8.5,0 c -0.47522,-35.869335 0.38052,-52.078722 0,-89.4999984 l -0.75,0.65 c -0.1047,29.8304324 -0.0852,60.7892744 0,87.9999984 l -7.25,0 z"
     id="path4355"
     inkscape:connector-curvature="0"
     sodipodi:nodetypes="ccccccc" />
  <path
     sodipodi:nodetypes="ccssccccc"
     inkscape:connector-curvature="0"
     id="path4353"
     d="m 83.016566,97.668384 8.5,0 c -0.05539,-5.74777 -0.02107,-11.793867 -0.204615,-17.799744 -0.672497,-22.005502 0.926216,-45.125964 0.362094,-62.725807 -0.0994,-3.100987 -0.08611,-6.100837 -0.157479,-8.9744474 l -0.75,0.65 c -0.04241,32.8019644 -0.13433,60.8839594 0,87.9999984 l -7.25,0 z"
     style="fill:#6f5f56;fill-opacity:1;fill-rule:evenodd;stroke:none;stroke-width:0.80000001px;stroke-linecap:butt;stroke-linejoin:miter;stroke-opacity:1" />
  <path
     style="fill:#6f5f56;fill-opacity:1;fill-rule:evenodd;stroke:none;stroke-width:0.80000001px;stroke-linecap:butt;stroke-linejoin:miter;stroke-opacity:1"
     d="m 60.53057,97.668384 8.5,0 c 0.615475,-33.409844 -0.575938,-58.151903 0,-89.4999984 l -0.75,0.65 c -0.749519,30.4685124 0.0071,60.6718274 0,87.9999984 l -7.25,0 z"
     id="path4351"
     inkscape:connector-curvature="0"
     sodipodi:nodetypes="ccccccc" />
  <path
     style="color:#000000;font-style:normal;font-variant:normal;font-weight:normal;font-stretch:normal;font-size:medium;line-height:normal;font-family:sans-serif;text-indent:0;text-align:start;text-decoration:none;text-decoration-line:none;text-decoration-style:solid;text-decoration-color:#000000;letter-spacing:normal;word-spacing:normal;text-transform:none;direction:ltr;block-progression:tb;writing-mode:lr-tb;baseline-shift:baseline;text-anchor:start;white-space:normal;clip-rule:nonzero;display:inline;overflow:visible;visibility:visible;opacity:1;isolation:auto;mix-blend-mode:normal;color-interpolation:sRGB;color-interpolation-filters:linearRGB;solid-color:#000000;solid-opacity:1;fill:#3b312d;fill-opacity:0.52395207;fill-rule:nonzero;stroke:none;stroke-width:8.42199993;stroke-linecap:butt;stroke-linejoin:round;stroke-miterlimit:4;stroke-dasharray:none;stroke-dashoffset:0;stroke-opacity:1;color-rendering:auto;image-rendering:auto;shape-rendering:auto;text-rendering:auto;enable-background:accumulate"
     d="M 198.20117 33.96875 C 194.57854 33.96875 191.16092 34.617583 188.09961 35.914062 C 188.19471 46.701702 188.0385 59.271531 187.89062 73.052734 C 190.41007 74.381236 193.24585 75.508766 196.39453 76.46875 C 197.40119 76.817028 198.28676 77.179132 199.07227 77.541016 C 199.07832 72.760789 199.08397 65.641175 199.08008 60.818359 C 196.53152 59.760129 194.80898 58.68817 193.97656 57.884766 A 4.2114211 4.2114211 0 0 0 193.97266 57.880859 C 192.89026 56.838983 192.5293 55.999338 192.5293 54.410156 C 192.5293 52.394553 192.99537 51.276273 193.94727 50.242188 C 194.77743 49.349182 195.80391 48.835938 198.10156 48.835938 C 198.44822 48.835938 198.75895 48.851111 199.05273 48.875 C 199.04351 44.329633 199.0361 39.462903 199.01953 33.986328 C 198.74716 33.978316 198.47592 33.96875 198.20117 33.96875 z M 244.68359 34.810547 A 4.2114211 4.2114211 0 0 0 244.33789 34.837891 C 243.99382 55.509889 241.86829 78.876702 243.61719 103.77734 L 244.80664 103.77734 A 4.2114211 4.2114211 0 0 0 249.01758 99.566406 L 249.01758 39.019531 A 4.2114211 4.2114211 0 0 0 244.68359 34.810547 z M 75.197266 34.847656 C 75.16625 39.741216 75.166765 45.195278 75.197266 51.171875 L 81.689453 41.386719 A 4.2114211 4.2114211 0 0 0 78.179688 34.847656 L 75.197266 34.847656 z M 103.91406 34.847656 C 103.96089 49.635086 103.47516 71.471796 103.29883 88.425781 L 112.57812 88.425781 L 114.30078 94.384766 C 113.91282 69.851111 115.08477 56.168193 115.22852 40.865234 L 114.30273 37.830078 A 4.2114211 4.2114211 0 0 0 110.27539 34.847656 L 103.91406 34.847656 z M 135.5 34.847656 A 4.2114211 4.2114211 0 0 0 131.66016 37.339844 C 131.57645 40.98472 131.43829 44.748529 131.28906 48.548828 L 131.28906 93.5625 L 130.39062 90.615234 C 130.48175 94.709811 130.6579 98.851645 130.93945 103.03906 A 4.2114211 4.2114211 0 0 0 132.0957 101.95898 A 4.2114211 4.2114211 0 0 0 135.5 103.69922 L 142.54883 103.69922 C 141.88891 81.802426 142.63991 52.090198 142.89648 34.847656 L 135.5 34.847656 z M 272.80664 34.847656 C 272.99312 47.359935 272.76668 62.87521 272.5293 77.201172 L 272.87695 77.234375 A 4.2114211 4.2114211 0 0 0 277.38281 74.003906 C 277.72161 72.558827 278.19331 71.904833 278.54492 71.595703 A 4.2114211 4.2114211 0 0 0 278.55859 71.583984 C 278.67322 71.482309 279.32844 71.082031 281.0957 71.082031 C 282.04407 71.082031 282.48084 71.152799 282.93164 71.648438 C 282.95053 66.360489 282.98945 61.130125 283.03906 56.027344 C 282.86714 56.025144 282.69622 56.01723 282.52344 56.019531 A 4.2114211 4.2114211 0 0 0 282.44922 56.021484 C 281.36112 56.055197 280.29343 56.198277 279.25586 56.435547 L 279.79883 50.203125 L 283.10352 50.203125 C 283.1696 44.490396 283.23871 39.270304 283.30859 34.847656 L 272.80664 34.847656 z M 47.712891 34.892578 C 47.818758 54.179919 47.584449 87.232545 47.451172 103.68164 A 4.2114211 4.2114211 0 0 0 51.335938 99.488281 L 51.335938 77.941406 L 58.185547 89.232422 C 58.192319 76.048673 58.333801 60.575023 58.46875 46.935547 L 51.335938 58.796875 L 51.335938 39.058594 A 4.2114211 4.2114211 0 0 0 47.712891 34.892578 z M 160.18945 35.800781 C 160.36821 49.589352 160.0747 66.692985 159.82422 81.748047 C 159.83241 81.974202 159.84375 82.196627 159.84375 82.4375 C 159.84375 82.870506 159.82356 83.261739 159.79492 83.634766 C 159.67171 91.11142 159.56478 98.306999 159.55859 103.31445 C 163.77292 102.63026 167.50716 101.00415 170.45312 98.320312 C 170.27787 89.330547 170.26739 78.304716 170.32812 67.310547 C 170.25503 67.248444 170.18518 67.182284 170.11133 67.121094 C 170.18129 67.043989 170.25764 66.97315 170.33008 66.898438 C 170.38033 58.079601 170.46794 49.542841 170.57031 42.146484 C 169.92426 41.336458 169.20142 40.587793 168.39844 39.908203 C 166.07886 37.943295 163.29841 36.610097 160.18945 35.800781 z M 227.86914 37.925781 L 223.8125 38.689453 A 4.2114211 4.2114211 0 0 0 220.38086 42.828125 L 220.38086 48.277344 A 4.2114211 4.2114211 0 0 0 224.87695 52.478516 L 227.5957 52.294922 C 227.75195 47.505537 227.86832 42.80868 227.86914 37.925781 z M 216.52148 42.658203 C 216.48523 48.267337 216.41103 54.365048 216.31641 60.691406 L 216.58008 60.691406 A 4.2114211 4.2114211 0 0 0 220.57227 57.8125 L 220.65039 57.578125 A 4.2114211 4.2114211 0 0 0 220.86523 56.345703 C 220.98346 51.316793 219.46614 46.574098 216.52148 42.658203 z M 105.24219 43.269531 L 107.15625 43.269531 L 108.45312 47.521484 A 4.2114211 4.2114211 0 0 0 106.29102 46.917969 L 106.03711 46.917969 A 4.2114211 4.2114211 0 0 0 103.94727 47.476562 L 105.24219 43.269531 z M 139.71094 43.269531 L 140.36328 43.269531 A 4.2114211 4.2114211 0 0 0 139.71094 45.404297 L 139.71094 43.269531 z M 165.41211 49.775391 C 165.9756 51.223596 166.26953 53.020433 166.26953 55.328125 C 166.26953 55.35445 166.25977 55.372275 166.25977 55.398438 C 166.25227 53.427712 165.99541 51.517654 165.41211 49.775391 z M 166.10547 56.603516 C 166.03922 57.194123 166.00285 57.816455 165.8457 58.335938 C 165.9337 57.756867 166.07194 57.200293 166.10547 56.603516 z M 139.71094 65.326172 A 4.2114211 4.2114211 0 0 0 140.99414 68.279297 A 4.2114211 4.2114211 0 0 0 139.71094 71.185547 L 139.71094 65.326172 z M 106.1543 65.951172 L 108.26367 73.324219 L 104.0332 73.324219 L 106.1543 65.951172 z M 55.050781 68.662109 A 4.2114211 4.2114211 0 0 0 55.087891 68.792969 A 4.2114211 4.2114211 0 0 0 54.980469 68.726562 A 4.2114211 4.2114211 0 0 0 55.050781 68.662109 z M 300.55859 69.716797 C 300.48342 76.4708 300.41409 83.328093 300.37891 90.833984 C 301.50558 87.608812 302.06445 84.036765 302.06445 80.191406 C 302.06445 76.377861 301.57223 72.870079 300.55859 69.716797 z M 216.17383 70.318359 C 216.01453 80.484663 215.86833 90.347219 215.86328 98.039062 C 219.35512 94.429221 221.20117 89.534824 221.20117 84.214844 C 221.20117 78.90826 219.50302 74.018873 216.17383 70.318359 z M 86.873047 74.324219 L 80.908203 93.708984 L 75.470703 85.269531 C 75.536767 92.375863 75.590795 99.170066 75.585938 103.69922 L 79.625 103.69922 A 4.2114211 4.2114211 0 0 0 81.580078 103.21484 A 4.2114211 4.2114211 0 0 0 83.537109 103.69922 L 86.972656 103.69922 C 87.101654 96.20453 87.012085 85.531438 86.873047 74.324219 z M 187.8418 77.763672 C 187.76578 85.592511 187.7177 93.676267 187.73242 102.43555 C 191.06431 103.84968 194.69238 104.57813 198.49219 104.57812 C 198.66578 104.57812 198.83329 104.5632 199.00586 104.56055 C 199.02623 98.798847 199.03075 94.517539 199.04297 89.771484 C 198.86338 89.778611 198.68743 89.789062 198.49219 89.789062 C 195.77197 89.789062 194.14058 89.134806 192.80273 87.908203 A 4.2114211 4.2114211 0 0 0 192.79883 87.904297 C 191.69505 86.894954 190.90625 85.218189 190.90625 81.8125 A 4.2114211 4.2114211 0 0 0 187.8418 77.763672 z M 273.15039 79.046875 L 272.5 79.060547 C 272.34902 88.116765 272.21101 96.674099 272.19531 102.66602 C 274.95139 103.9196 277.99344 104.57813 281.17383 104.57812 C 281.87307 104.57812 282.56256 104.54326 283.24414 104.48438 C 283.09935 100.12394 283.00722 94.978647 282.96094 89.320312 C 282.56457 89.698656 282.11779 89.75 281.17383 89.75 C 279.88085 89.75 279.4844 89.550517 278.72656 88.587891 C 278.06662 87.743356 277.45508 86.102187 277.45508 83.257812 A 4.2114211 4.2114211 0 0 0 273.15039 79.046875 z M 168.17383 83.095703 C 168.12683 84.716816 167.91898 86.096485 167.58398 87.296875 C 167.91688 85.955568 168.13207 84.558461 168.17383 83.095703 z M 139.71094 93.177734 A 4.2114211 4.2114211 0 0 0 140.31836 95.277344 L 139.71094 95.277344 L 139.71094 93.177734 z "
     transform="scale(0.8,0.8)"
     id="path5809" />
  <path
     sodipodi:nodetypes="ccccccc"
     inkscape:connector-curvature="0"
     id="path4349"
     d="m 38.203153,97.718384 8.5,0 c -0.718445,-31.23473 -0.04783,-46.725258 -0.15,-89.3499984 l -0.75,0.65 c -0.463053,42.1266524 -0.04047,60.9109694 0.15,87.8499984 l -7.25,0 z"
     style="fill:#6f5f56;fill-opacity:1;fill-rule:evenodd;stroke:none;stroke-width:0.80000001px;stroke-linecap:butt;stroke-linejoin:miter;stroke-opacity:1" />
  <path
     style="fill:#6f5f56;fill-opacity:1;fill-rule:evenodd;stroke:none;stroke-width:0.80000001px;stroke-linecap:butt;stroke-linejoin:miter;stroke-opacity:1"
     d="m 15.7,97.668384 8.5,0 C 24.051301,67.349961 23.266816,45.589662 24.2,8.1683856 l -0.75,0.65 c -1.173783,30.0442484 -0.205041,60.8132484 0,87.9999984 l -7.25,0 z"
     id="path4347"
     inkscape:connector-curvature="0"
     sodipodi:nodetypes="ccccccc" />
  <path
     inkscape:connector-curvature="0"
     id="path4385"
     d="m 8.523438,12.574219 248.875002,0 0,4.5 -248.875002,0 z m 0,0"
     style="fill:#b3b3b3;fill-opacity:1;fill-rule:nonzero;stroke:#b3b3b3;stroke-width:0.898359;stroke-linecap:round;stroke-linejoin:miter;stroke-miterlimit:4;stroke-opacity:1" />
  <path
     inkscape:connector-curvature="0"
     id="path4387"
     d="m 8.523438,88.949219 248.875002,0 0,4.476562 -248.875002,0 z m 0,0"
     style="fill:#b3b3b3;fill-opacity:1;fill-rule:nonzero;stroke:#b3b3b3;stroke-width:0.673769;stroke-linecap:round;stroke-linejoin:miter;stroke-miterlimit:4;stroke-opacity:1" />
  <path
     inkscape:connector-curvature="0"
     id="path4389"
     d="M 67.910156,48.226563 66.875,86.246094 c 0.34375,-12.675781 1.5625,-21.019531 1.035156,-38.019531 z m 0,0"
     style="fill:#332b26;fill-opacity:1;fill-rule:nonzero;stroke:none" />
  <path
     inkscape:connector-curvature="0"
     id="path4391"
     d="m 17.789063,22.308594 c -0.265625,12.5 0.519531,21.855469 0.800781,32.722656 0.01172,-10.628906 0.585937,-20.691406 -0.800781,-32.722656 z m 0,0"
     style="fill:#332b26;fill-opacity:1;fill-rule:nonzero;stroke:none" />
  <path
     inkscape:connector-curvature="0"
     id="path4393"
     d="M 42.546875,20.226563 44.46875,58.246094 C 43.828125,45.570313 41.5625,37.226563 42.546875,20.226563 Z m 0,0"
     style="fill:#332b26;fill-opacity:1;fill-rule:nonzero;stroke:none" />
  <path
     inkscape:connector-curvature="0"
     id="path4395"
     d="m 39.851563,50.769531 1.921875,38.019532 C 41.132813,76.117188 38.871094,67.769531 39.851563,50.769531 Z m 0,0"
     style="fill:#332b26;fill-opacity:1;fill-rule:nonzero;stroke:none" />
  <path
     inkscape:connector-curvature="0"
     id="path4397"
     d="M 63.4375,51.222656 62.808594,84.109375 C 63.019531,73.148438 62.164063,65.890625 63.4375,51.222656 Z m 0,0"
     style="fill:#332b26;fill-opacity:1;fill-rule:nonzero;stroke:none" />
  <path
     inkscape:connector-curvature="0"
     id="path4399"
     d="m 155.89453,38.671875 c -0.0547,4.851563 -0.67969,7.035156 0.23438,16.480469 z m 0,0"
     style="fill:#332b26;fill-opacity:1;fill-rule:nonzero;stroke:none" />
  <path
     inkscape:connector-curvature="0"
     id="path4401"
     d="m 176.03516,40.042969 c -0.0547,4.851562 -0.67579,7.035156 0.23437,16.480469 z m 0,0"
     style="fill:#332b26;fill-opacity:1;fill-rule:nonzero;stroke:none" />
  <path
     inkscape:connector-curvature="0"
     id="path4403"
     d="m 222.98047,22.035156 c 0,0 -0.76172,40.605469 -0.40625,44.75 0,0 0.875,-18.96875 0.85547,-19.757812 -0.0937,-4.203125 -0.48828,-7.570313 -0.20703,-12.746094 0.22265,-4.078125 0.043,-4.246094 -0.24219,-12.246094 z m 0,0"
     style="fill:#332b26;fill-opacity:1;fill-rule:nonzero;stroke:none" />
  <path
     inkscape:connector-curvature="0"
     id="path4405"
     d="m 220.55469,71.738281 0.28906,15.859375 0.21094,-7.789062 z m 0,0"
     style="fill:#332b26;fill-opacity:1;fill-rule:nonzero;stroke:none" />
  <path
     inkscape:connector-curvature="0"
     id="path4407"
     d="m 109.375,60.472656 0.21094,11.304688 -0.62891,16.554687 0.91016,-14.730468 0.0703,-9.699219 z m 0,0"
     style="fill:#332b26;fill-opacity:1;fill-rule:nonzero;stroke:none" />
  <path
     inkscape:connector-curvature="0"
     id="path4409"
     d="m 106.55078,25.570313 c 0.46485,18.054687 0.66016,7.421875 0.48438,12.109375 -0.27344,7.351562 -0.22266,14.550781 -0.48438,17.835937 z m 0,0"
     style="fill:#332b26;fill-opacity:1;fill-rule:nonzero;stroke:none" />
  <path
     inkscape:connector-curvature="0"
     id="path4411"
     d="m 130.96875,19.707031 c -0.45313,6.566407 0,29.714844 0,29.714844 0,0 -0.54688,-18.0625 -0.57031,-19.144531 -0.0781,-3.527344 0.57031,-10.570313 0.57031,-10.570313 z m 0,0"
     style="fill:#332b26;fill-opacity:1;fill-rule:nonzero;stroke:none" />
  <path
     inkscape:connector-curvature="0"
     id="path4413"
     d="m 61.75,19.054688 c 0.05469,3 0.679688,4.351562 -0.234375,10.195312 z m 0,0"
     style="fill:#332b26;fill-opacity:1;fill-rule:nonzero;stroke:none" />
  <path
     inkscape:connector-curvature="0"
     id="path4415"
     d="m 87.988281,47.5625 c -0.328125,5.488281 -1.074218,7.929688 -0.695312,18.667969 z m 0,0"
     style="fill:#332b26;fill-opacity:1;fill-rule:nonzero;stroke:none" />
  <path
     inkscape:connector-curvature="0"
     id="path4417"
     d="m 18.917969,79.375 -0.5625,7.296875 C 18.546875,84.25 19.140625,83.847656 18.917969,79.375 Z m 0,0"
     style="fill:#332b26;fill-opacity:1;fill-rule:nonzero;stroke:none" />
  <path
     inkscape:connector-curvature="0"
     id="path4419"
     d="m 85.691406,19.664063 c -0.05469,8.953125 -0.675781,12.984375 0.234375,30.417968 z m 0,0"
     style="fill:#332b26;fill-opacity:1;fill-rule:nonzero;stroke:none" />
  <path
     inkscape:connector-curvature="0"
     id="path4421"
     d="m 178.26953,56.480469 c 0.46875,18.054687 0.66016,7.421875 0.48438,12.113281 -0.26954,7.347656 -0.22266,14.546875 -0.48438,17.832031 z m 0,0"
     style="fill:#332b26;fill-opacity:1;fill-rule:nonzero;stroke:none" />
  <path
     inkscape:connector-curvature="0"
     id="path4423"
     d="m 200.69922,21.523438 c 0.45312,6.566406 0,29.714843 0,29.714843 0,0 0.54687,-18.0625 0.57031,-19.140625 0.0781,-3.53125 -0.57031,-10.574218 -0.57031,-10.574218 z m 0,0"
     style="fill:#332b26;fill-opacity:1;fill-rule:nonzero;stroke:none" />
  <path
     inkscape:connector-curvature="0"
     id="path4425"
     d="m 199.45703,72.652344 c -0.45312,-6.5625 0,-29.710938 0,-29.710938 0,0 -0.54687,18.0625 -0.57031,19.140625 -0.0781,3.527344 0.57031,10.570313 0.57031,10.570313 z m 0,0"
     style="fill:#332b26;fill-opacity:1;fill-rule:nonzero;stroke:none" />
  <path
     inkscape:connector-curvature="0"
     id="path4427"
     d="m 242.55469,19.523438 0.21484,18.144531 -0.64062,26.570312 0.92578,-23.640625 0.0742,-15.574218 z m 0,0"
     style="fill:#332b26;fill-opacity:1;fill-rule:nonzero;stroke:none" />
  <path
     inkscape:connector-curvature="0"
     id="path4429"
     d="m 246.69922,42.023438 c 0,11.214843 -1.42969,32.359375 -1.42969,32.359375 l 0.42969,11.785156 c 0,0 -0.1875,-17.546875 0.85547,-28.570313 0.49218,-5.167968 0.14453,-15.574218 0.14453,-15.574218 z m 0,0"
     style="fill:#332b26;fill-opacity:1;fill-rule:nonzero;stroke:none" />
  <path
     inkscape:connector-curvature="0"
     id="path4431"
     d="m 39.910156,55.503906 -4.609375,0 0,21.6875 -6.734375,0 0,-48.34375 6.734375,0 0,21.25 4.015625,0 12.78125,-21.25 8.046875,0 -15.21875,22.9375 16.375,25.40625 -8.234375,0 z m 0,0"
     style="fill:#8f7a6e;fill-opacity:1;fill-rule:nonzero;stroke:#332b26;stroke-width:6.73759985;stroke-linecap:butt;stroke-linejoin:round;stroke-miterlimit:4;stroke-opacity:1" />
  <path
     inkscape:connector-curvature="0"
     id="path4433"
     d="m 90.195313,64.972656 -15.40625,0 -3.515625,12.21875 -6.84375,0 14.875,-48.34375 6.515625,0 14.734377,48.34375 -6.828127,0 z m -13.84375,-5.34375 12.328125,0 -6.046875,-21.125 -0.203125,0 z m 0,0"
     style="fill:#8f7a6e;fill-opacity:1;fill-rule:nonzero;stroke:#332b26;stroke-width:6.73759985;stroke-linecap:butt;stroke-linejoin:round;stroke-miterlimit:4;stroke-opacity:1" />
  <path
     inkscape:connector-curvature="0"
     id="path4435"
     d="m 106,77.191406 0,-48.34375 13.46875,0 c 4.5625,0 8.11719,1.085938 10.67187,3.25 2.5625,2.167969 3.84375,5.421875 3.84375,9.765625 0,2.304688 -0.58593,4.335938 -1.75,6.09375 -1.15625,1.761719 -2.76562,3.046875 -4.82812,3.859375 2.61328,0.585938 4.625,1.953125 6.03125,4.109375 1.40625,2.15625 2.10937,4.683594 2.10937,7.578125 0,4.460938 -1.25781,7.855469 -3.76562,10.1875 -2.51172,2.335938 -5.98047,3.5 -10.40625,3.5 z m 6.73438,-22.546875 0,17.4375 8.64062,0 c 2.38281,0 4.22266,-0.734375 5.51563,-2.203125 1.30078,-1.476562 1.95312,-3.585937 1.95312,-6.328125 0,-2.726562 -0.55859,-4.894531 -1.67187,-6.5 -1.10547,-1.601562 -2.8086,-2.40625 -5.10938,-2.40625 z m 0,-4.84375 7.40625,0 c 2.20703,0 3.9414,-0.664062 5.20312,-2 1.26953,-1.34375 1.90625,-3.28125 1.90625,-5.8125 0,-2.65625 -0.66406,-4.644531 -1.98437,-5.96875 -1.3125,-1.332031 -3.2461,-2 -5.79688,-2 l -6.73437,0 z m 0,0"
     style="fill:#8f7a6e;fill-opacity:1;fill-rule:nonzero;stroke:#332b26;stroke-width:6.73759985;stroke-linecap:butt;stroke-linejoin:round;stroke-miterlimit:4;stroke-opacity:1" />
  <path
     inkscape:connector-curvature="0"
     id="path4437"
     d="m 164.45703,65.035156 c 0,-2.28125 -0.64844,-4.148437 -1.9375,-5.609375 -1.28125,-1.457031 -3.52734,-2.738281 -6.73437,-3.84375 -4.60547,-1.394531 -8.13672,-3.21875 -10.59375,-5.46875 -2.44922,-2.25 -3.67188,-5.222656 -3.67188,-8.921875 0,-3.800781 1.36328,-6.925781 4.09375,-9.375 2.72656,-2.445312 6.24219,-3.671875 10.54688,-3.671875 4.46875,0 8.0664,1.414063 10.79687,4.234375 2.73828,2.824219 4.0625,6.230469 3.96875,10.21875 l -0.0625,0.1875 -6.46875,0 c 0,-2.800781 -0.73047,-5.082031 -2.1875,-6.84375 -1.44922,-1.757812 -3.49219,-2.640625 -6.125,-2.640625 -2.5,0 -4.43359,0.734375 -5.79687,2.203125 -1.35547,1.46875 -2.03125,3.34375 -2.03125,5.625 0,2.0625 0.72656,3.796875 2.1875,5.203125 1.45703,1.40625 3.86718,2.683594 7.23437,3.828125 4.40625,1.375 7.75781,3.25 10.0625,5.625 2.30078,2.367188 3.45313,5.429688 3.45313,9.1875 0,3.960938 -1.35938,7.105469 -4.07813,9.4375 -2.71875,2.324219 -6.29297,3.484375 -10.71875,3.484375 -4.32422,0 -8.09375,-1.273437 -11.3125,-3.828125 -3.21875,-2.5625 -4.77734,-6.171875 -4.67187,-10.828125 l 0.0781,-0.1875 6.46875,0 c 0,3.3125 0.86719,5.765625 2.60938,7.359375 1.73828,1.59375 4.01562,2.390625 6.82812,2.390625 2.51953,0 4.49219,-0.695312 5.92188,-2.09375 1.42578,-1.40625 2.14062,-3.296875 2.14062,-5.671875 z m 0,0"
     style="fill:#8f7a6e;fill-opacity:1;fill-rule:nonzero;stroke:#332b26;stroke-width:6.73759985;stroke-linecap:butt;stroke-linejoin:round;stroke-miterlimit:4;stroke-opacity:1" />
  <path
     inkscape:connector-curvature="0"
     id="path4439"
     d="m 193.44531,77.253906 -6.70312,0 0,-41.671875 -9.46875,0.640625 0,-4.359375 16.17187,-3.046875 z m 16.98438,-21.78125 2.3125,-26.625 21.6875,0 0,5.546875 -16.07813,0 -1.25,14.34375 c 0.8125,-0.84375 1.75781,-1.535156 2.84375,-2.078125 1.09375,-0.539062 2.33203,-0.832031 3.71875,-0.875 3.8125,-0.05078 6.80078,1.359375 8.96875,4.234375 2.16406,2.867188 3.25,6.777344 3.25,11.734375 0,4.804688 -1.13672,8.695313 -3.40625,11.671875 -2.26172,2.980469 -5.57422,4.46875 -9.9375,4.46875 -3.625,0 -6.67969,-1.148437 -9.15625,-3.453125 -2.48047,-2.300781 -3.67969,-5.613281 -3.59375,-9.9375 l 0.0625,-0.15625 6.34375,-0.140625 c 0,2.75 0.57813,4.867188 1.73438,6.34375 1.16406,1.480469 2.70312,2.21875 4.60937,2.21875 2.19531,0 3.84766,-0.96875 4.95313,-2.90625 1.10156,-1.9375 1.65625,-4.617187 1.65625,-8.046875 0,-3.226562 -0.57813,-5.820312 -1.73438,-7.78125 -1.14844,-1.957031 -2.79297,-2.9375 -4.9375,-2.9375 -1.90625,0 -3.32812,0.417969 -4.26562,1.25 -0.9375,0.824219 -1.60157,2.054688 -1.98438,3.6875 z m 0,0"
     style="fill:#8f7a6e;fill-opacity:1;fill-rule:nonzero;stroke:#332b26;stroke-width:6.73759985;stroke-linecap:butt;stroke-linejoin:round;stroke-miterlimit:4;stroke-opacity:1" />
  <path
     inkscape:connector-curvature="0"
     id="path4441"
     d="m 39.910156,55.503906 -4.609375,0 0,21.6875 -6.734375,0 0,-48.34375 6.734375,0 0,21.25 4.015625,0 12.78125,-21.25 8.046875,0 -15.21875,22.9375 16.375,25.40625 -8.234375,0 z m 0,0"
     style="fill:#ff0000;fill-opacity:1;fill-rule:nonzero;stroke:#ff0000;stroke-width:2.11114407;stroke-linecap:butt;stroke-linejoin:round;stroke-miterlimit:4;stroke-opacity:1" />
  <path
     inkscape:connector-curvature="0"
     id="path4443"
     d="m 90.195313,64.972656 -15.40625,0 -3.515625,12.21875 -6.84375,0 14.875,-48.34375 6.515625,0 14.734377,48.34375 -6.828127,0 z m -13.84375,-5.34375 12.328125,0 -6.046875,-21.125 -0.203125,0 z m 0,0"
     style="fill:#ff0000;fill-opacity:1;fill-rule:nonzero;stroke:#ff0000;stroke-width:2.11114407;stroke-linecap:butt;stroke-linejoin:round;stroke-miterlimit:4;stroke-opacity:1" />
  <path
     inkscape:connector-curvature="0"
     id="path4445"
     d="m 106.42188,77.191406 0,-48.34375 13.46875,0 c 4.5625,0 8.11718,1.085938 10.67187,3.25 2.5625,2.167969 3.84375,5.421875 3.84375,9.765625 0,2.304688 -0.58594,4.335938 -1.75,6.09375 -1.15625,1.761719 -2.76563,3.046875 -4.82812,3.859375 2.61328,0.585938 4.62499,1.953125 6.03124,4.109375 1.40625,2.15625 2.10938,4.683594 2.10938,7.578125 0,4.460938 -1.25781,7.855469 -3.76563,10.1875 -2.51171,2.335938 -5.98046,3.5 -10.40624,3.5 z m 6.73437,-22.546875 0,17.4375 8.64063,0 c 2.38281,0 4.22265,-0.734375 5.51562,-2.203125 1.30078,-1.476562 1.95312,-3.585937 1.95312,-6.328125 0,-2.726562 -0.55859,-4.894531 -1.67187,-6.5 -1.10547,-1.601562 -2.80859,-2.40625 -5.10937,-2.40625 z m 0,-4.84375 7.40625,0 c 2.20703,0 3.94141,-0.664062 5.20313,-2 1.26953,-1.34375 1.90625,-3.28125 1.90625,-5.8125 0,-2.65625 -0.66407,-4.644531 -1.98438,-5.96875 -1.3125,-1.332031 -3.24609,-2 -5.79687,-2 l -6.73438,0 z m 0,0"
     style="fill:#ff0000;fill-opacity:1;fill-rule:nonzero;stroke:#ff0000;stroke-width:2.11114407;stroke-linecap:butt;stroke-linejoin:round;stroke-miterlimit:4;stroke-opacity:1" />
  <path
     inkscape:connector-curvature="0"
     id="path4447"
     d="m 164.13281,65.035156 c 0,-2.28125 -0.64844,-4.148437 -1.9375,-5.609375 -1.28125,-1.457031 -3.52734,-2.738281 -6.73437,-3.84375 -4.60547,-1.394531 -8.13672,-3.21875 -10.59375,-5.46875 -2.44922,-2.25 -3.67188,-5.222656 -3.67188,-8.921875 0,-3.800781 1.36328,-6.925781 4.09375,-9.375 2.72656,-2.445312 6.24219,-3.671875 10.54688,-3.671875 4.46875,0 8.0664,1.414063 10.79687,4.234375 2.73828,2.824219 4.0625,6.230469 3.96875,10.21875 l -0.0625,0.1875 -6.46875,0 c 0,-2.800781 -0.73047,-5.082031 -2.1875,-6.84375 -1.44922,-1.757812 -3.49219,-2.640625 -6.125,-2.640625 -2.5,0 -4.43359,0.734375 -5.79687,2.203125 -1.35547,1.46875 -2.03125,3.34375 -2.03125,5.625 0,2.0625 0.72656,3.796875 2.1875,5.203125 1.45703,1.40625 3.86718,2.683594 7.23437,3.828125 4.40625,1.375 7.75781,3.25 10.0625,5.625 2.30078,2.367188 3.45313,5.429688 3.45313,9.1875 0,3.960938 -1.35938,7.105469 -4.07813,9.4375 -2.71875,2.324219 -6.29297,3.484375 -10.71875,3.484375 -4.32422,0 -8.09375,-1.273437 -11.3125,-3.828125 -3.21875,-2.5625 -4.77734,-6.171875 -4.67187,-10.828125 l 0.0781,-0.1875 6.46875,0 c 0,3.3125 0.86719,5.765625 2.60938,7.359375 1.73828,1.59375 4.01562,2.390625 6.82812,2.390625 2.51953,0 4.49219,-0.695312 5.92188,-2.09375 1.42578,-1.40625 2.14062,-3.296875 2.14062,-5.671875 z m 0,0"
     style="fill:#ff0000;fill-opacity:1;fill-rule:nonzero;stroke:#ff0000;stroke-width:2.11114407;stroke-linecap:butt;stroke-linejoin:round;stroke-miterlimit:4;stroke-opacity:1" />
  <path
     inkscape:connector-curvature="0"
     id="path4449"
     d="m 193.58203,77.253906 -6.70312,0 0,-41.671875 -9.46875,0.640625 0,-4.359375 16.17187,-3.046875 z m 16.98438,-21.78125 2.3125,-26.625 21.6875,0 0,5.546875 -16.07813,0 -1.25,14.34375 c 0.8125,-0.84375 1.75781,-1.535156 2.84375,-2.078125 1.09375,-0.539062 2.33203,-0.832031 3.71875,-0.875 3.8125,-0.05078 6.80078,1.359375 8.96875,4.234375 2.16406,2.867188 3.25,6.777344 3.25,11.734375 0,4.804688 -1.13672,8.695313 -3.40625,11.671875 -2.26172,2.980469 -5.57422,4.46875 -9.9375,4.46875 -3.625,0 -6.67969,-1.148437 -9.15625,-3.453125 -2.48047,-2.300781 -3.67969,-5.613281 -3.59375,-9.9375 l 0.0625,-0.15625 6.34375,-0.140625 c 0,2.75 0.57813,4.867188 1.73438,6.34375 1.16406,1.480469 2.70312,2.21875 4.60937,2.21875 2.19531,0 3.84766,-0.96875 4.95313,-2.90625 1.10156,-1.9375 1.65625,-4.617187 1.65625,-8.046875 0,-3.226562 -0.57813,-5.820312 -1.73438,-7.78125 -1.14844,-1.957031 -2.79297,-2.9375 -4.9375,-2.9375 -1.90625,0 -3.32812,0.417969 -4.26562,1.25 -0.9375,0.824219 -1.60157,2.054688 -1.98438,3.6875 z m 0,0"
     style="fill:#ff0000;fill-opacity:1;fill-rule:nonzero;stroke:#ff0000;stroke-width:2.11114407;stroke-linecap:butt;stroke-linejoin:round;stroke-miterlimit:4;stroke-opacity:1" />
  <use
     height="100%"
     width="100%"
     y="0"
     x="0"
     id="use4451"
     mask="url(#mask0)"
     transform="translate(27,28)"
     xlink:href="#surface4797" />
  <path
     style="opacity:1;fill:#bf0000;fill-opacity:1;fill-rule:evenodd;stroke:none;stroke-width:0.80000001px;stroke-linecap:butt;stroke-linejoin:miter;stroke-opacity:1"
     d="M 264.98828 34.765625 L 264.10547 43.751953 C 264.27037 43.740335 264.43399 43.715458 264.58789 43.666016 C 266.15387 43.162922 264.91235 39.069243 266.82227 39.267578 C 275.67272 40.186649 283.92664 36.717842 291.55859 39.84375 C 292.83623 40.367047 293.56424 42.252376 294.46094 43.417969 L 296.32227 36.710938 L 264.98828 34.765625 z "
     transform="scale(0.8,0.8)"
     id="path5108" />
  <path
     style="opacity:1;fill:#e8fffe;fill-opacity:1;fill-rule:evenodd;stroke:none;stroke-width:0.80000001px;stroke-linecap:butt;stroke-linejoin:miter;stroke-opacity:1"
     d="m 210.91964,25.365854 c -2.13842,0.685769 -3.23772,4.970644 -2.24996,7.326803 0.43563,1.039128 1.9272,1.902302 2.99995,1.557667 1.25278,-0.402475 0.2605,-3.677842 1.78843,-3.519174 7.08036,0.735257 13.68259,-2.039194 19.78815,0.461532 1.61146,0.660025 2.12929,4.041214 3.80763,3.576864 1.69555,-0.469111 1.67849,-3.403778 1.44228,-5.07684 -0.3387,-2.398972 -1.94991,-4.720961 -3.40379,-4.61531 -6.67727,0.485224 -20.62305,-0.849878 -24.17269,0.288458 z"
     id="path4997"
     inkscape:connector-curvature="0"
     sodipodi:nodetypes="saasaasss" />
  <path
     style="fill:#bf0000;fill-opacity:1;fill-rule:evenodd;stroke:none;stroke-width:0.80000001px;stroke-linecap:butt;stroke-linejoin:miter;stroke-opacity:1"
     d="M 274.16406 55.306641 C 271.84611 56.873636 269.01797 59.636806 270.46484 61.578125 C 272.37963 64.147257 276.43858 58.687469 279.64258 58.722656 C 287.87798 58.813115 287.07112 64.251334 291.16602 63.515625 C 291.69252 63.421031 292.27386 63.175089 292.7832 62.833984 C 289.95387 58.645111 285.69422 56.838011 282.71094 55.404297 L 274.16406 55.306641 z "
     transform="scale(0.8,0.8)"
     id="path5110" />
  <path
     style="fill:#e8fffe;fill-opacity:1;fill-rule:evenodd;stroke:none;stroke-width:0.80000001px;stroke-linecap:butt;stroke-linejoin:miter;stroke-opacity:1"
     d="m 216.37116,48.662082 c -1.31169,-1.759934 1.77093,-4.36826 3.67145,-5.466391 2.40752,-1.391077 5.66226,-1.381794 8.32197,-0.571115 2.79954,0.853299 6.80409,2.461036 6.93497,5.384803 0.0482,1.076514 -1.30544,2.012319 -2.36605,2.202873 -3.27592,0.588567 -2.63111,-3.762265 -9.21943,-3.834632 -2.5632,-0.02815 -5.81108,4.339768 -7.34291,2.284462 z"
     id="path5001"
     inkscape:connector-curvature="0"
     sodipodi:nodetypes="aaaaasa" />
  <path
     sodipodi:nodetypes="aaaaa"
     inkscape:connector-curvature="0"
     id="path5112"
     d="m 218.16608,69.287521 c 0.71301,-1.386101 3.09283,0.546576 4.65052,0.489527 1.38072,-0.05057 3.46043,-1.969544 4.07939,-0.734292 0.99993,1.99555 -2.66569,4.674233 -4.89527,4.568924 -1.92436,-0.09089 -4.71587,-2.611021 -3.83464,-4.324159 z"
     style="fill:#bf0000;fill-opacity:1;fill-rule:evenodd;stroke:none;stroke-width:0.80000001px;stroke-linecap:butt;stroke-linejoin:miter;stroke-opacity:1" />
  <path
     style="fill:#e8fffe;fill-opacity:1;fill-rule:evenodd;stroke:none;stroke-width:0.80000001px;stroke-linecap:butt;stroke-linejoin:miter;stroke-opacity:1"
     d="m 218.16608,68.651122 c 0.71301,-1.386101 3.09283,0.546576 4.65052,0.489527 1.38072,-0.05057 3.46043,-1.969544 4.07939,-0.734292 0.99993,1.99555 -2.66569,4.674233 -4.89527,4.568924 -1.92436,-0.09089 -4.71587,-2.611021 -3.83464,-4.324159 z"
     id="path5003"
     inkscape:connector-curvature="0"
     sodipodi:nodetypes="aaaaa" />
  <path
     style="opacity:1;fill:#bf0000;fill-opacity:1;fill-rule:evenodd;stroke:none;stroke-width:0.80000001px;stroke-linecap:butt;stroke-linejoin:miter;stroke-opacity:1"
     d="M 243.40625 37.804688 L 220.5 39.398438 L 220.45117 43.638672 C 221.25991 43.059687 222.09481 42.511254 222.9043 42.494141 C 228.75091 42.370536 234.67285 40.125416 240.35742 41.412109 C 241.43054 41.655006 242.37944 42.804038 243.30859 43.623047 L 243.40625 37.804688 z "
     transform="scale(0.8,0.8)"
     id="path5106" />
  <path
     style="opacity:1;fill:#e8fffe;fill-opacity:1;fill-rule:evenodd;stroke:none;stroke-width:0.80000001px;stroke-linecap:butt;stroke-linejoin:miter;stroke-opacity:1"
     d="m 173.65102,34.94262 c -1.75662,-1.648888 -0.25445,-6.315205 2.07689,-6.922964 6.10788,-1.592262 19.16195,-5.574547 21.05735,-1.499976 1.01545,2.182948 2.02166,6.80821 -0.34615,8.134484 -1.3819,0.774041 -2.60894,-1.957985 -4.15378,-2.307656 -4.54766,-1.029355 -9.28402,0.766487 -13.96131,0.865371 -1.6607,0.03511 -3.46189,2.86757 -4.673,1.730741 z"
     id="path5005"
     inkscape:connector-curvature="0"
     sodipodi:nodetypes="assaasa" />
  <path
     style="opacity:1;fill:#bf0000;fill-opacity:1;fill-rule:evenodd;stroke:none;stroke-width:0.80000001px;stroke-linecap:butt;stroke-linejoin:miter;stroke-opacity:1"
     d="M 194.78516 33.855469 L 194.78516 33.857422 C 189.15366 33.857422 184.38534 35.496587 180.7207 38.783203 C 178.54742 40.732633 177.0161 43.06136 176.11523 45.683594 C 177.55006 45.544241 179.63434 42.222067 181.43945 41.451172 C 185.51498 39.710676 189.84379 38.005059 194.27539 37.990234 C 198.25175 37.976934 202.08105 39.65078 205.81445 41.019531 C 208.24445 41.910425 211.27711 45.473595 213.49805 46.400391 C 212.61509 43.882912 211.19892 41.579051 209.23047 39.548828 C 205.56782 35.765656 200.65141 33.855469 194.78711 33.855469 L 194.78516 33.855469 z "
     transform="scale(0.8,0.8)"
     id="path5104" />
  <path
     style="opacity:1;fill:#e8fffe;fill-opacity:1;fill-rule:evenodd;stroke:none;stroke-width:0.80000001px;stroke-linecap:butt;stroke-linejoin:miter;stroke-opacity:1"
     d="m 140.19003,35.519533 c -3.47331,-5.229066 7.05359,-11.012926 15.23052,-11.076742 10.6985,-0.08349 20.61294,5.544073 17.19203,11.538273 -1.45809,2.554903 -5.19948,-2.795044 -7.96141,-3.807631 -2.98672,-1.095001 -6.04953,-2.433676 -9.23062,-2.423036 -3.54528,0.01186 -7.00864,1.376788 -10.26906,2.769185 -1.77734,0.759035 -3.89214,4.60981 -4.96146,2.999951 z"
     id="path5007"
     inkscape:connector-curvature="0"
     sodipodi:nodetypes="asaaaaa" />
  <path
     style="opacity:1;fill:#bf0000;fill-opacity:1;fill-rule:evenodd;stroke:none;stroke-width:0.80000001px;stroke-linecap:butt;stroke-linejoin:miter;stroke-opacity:1"
     d="M 188.37891 56.773438 C 187.8052 57.175394 187.41308 57.712193 187.42188 58.324219 C 187.52858 65.745078 198.21297 62.908164 207.56445 67.810547 C 208.00211 68.039984 208.54104 67.951714 209.05273 67.707031 C 206.06055 65.06093 202.05556 62.988058 197.07422 61.433594 L 197.10742 61.443359 C 193.00001 60.047222 190.1401 58.489139 188.55469 56.958984 C 188.49171 56.898364 188.43922 56.834762 188.37891 56.773438 z "
     transform="scale(0.8,0.8)"
     id="path5100" />
  <path
     style="opacity:1;fill:#e8fffe;fill-opacity:1;fill-rule:evenodd;stroke:none;stroke-width:0.80000001px;stroke-linecap:butt;stroke-linejoin:miter;stroke-opacity:1"
     d="m 149.93816,46.058957 c -0.0184,-1.280695 2.13974,-2.157162 3.4277,-1.73654 7.14837,2.334514 11.91059,2.852426 14.97756,6.773787 0.93466,1.195038 -1.13672,3.157672 -2.29126,2.552418 -7.48119,-3.921906 -16.02864,-1.652978 -16.114,-7.589665 z"
     id="path5009"
     inkscape:connector-curvature="0"
     sodipodi:nodetypes="asssa" />
  <path
     style="fill:#bf0000;fill-opacity:1;fill-rule:evenodd;stroke:none;stroke-width:0.80000001px;stroke-linecap:butt;stroke-linejoin:miter;stroke-opacity:1"
     d="m 149.2243,68.680006 c 0.95978,-1.84543 4.04068,1.140339 6.1191,1.223818 2.32572,0.09341 6.18345,-3.018817 6.93497,-0.81588 0.97281,2.851619 -4.7563,4.983309 -7.75085,4.650512 -2.428,-0.269834 -6.43043,-2.8911 -5.30322,-5.05845 z"
     id="path5102"
     inkscape:connector-curvature="0"
     sodipodi:nodetypes="aaaaa" />
  <path
     sodipodi:nodetypes="aaaaa"
     inkscape:connector-curvature="0"
     id="path5011"
     d="m 149.2243,68.080006 c 0.95978,-1.84543 4.04068,1.140339 6.1191,1.223818 2.32572,0.09341 6.18345,-3.018817 6.93497,-0.81588 0.97281,2.851619 -4.7563,4.983309 -7.75085,4.650512 -2.428,-0.269834 -6.43043,-2.8911 -5.30322,-5.05845 z"
     style="fill:#e8fffe;fill-opacity:1;fill-rule:evenodd;stroke:none;stroke-width:0.80000001px;stroke-linecap:butt;stroke-linejoin:miter;stroke-opacity:1" />
  <path
     style="opacity:1;fill:#bf0000;fill-opacity:1;fill-rule:evenodd;stroke:none;stroke-width:0.80000001px;stroke-linecap:butt;stroke-linejoin:miter;stroke-opacity:1"
     d="M 131.6875 35.273438 L 131.6875 43.855469 C 133.10806 43.218949 131.9641 39.307774 133.83398 39.501953 C 142.68443 40.421024 150.54505 38.177278 158.57031 40.078125 C 161.95758 40.880424 165.99233 46.451607 168.30273 45.457031 C 166.80403 40.986238 163.46489 36.304407 158.8125 35.835938 L 131.6875 35.273438 z "
     transform="scale(0.8,0.8)"
     id="path5116" />
  <path
     sodipodi:nodetypes="saasasss"
     inkscape:connector-curvature="0"
     id="path5013"
     d="m 104.52899,25.52903 c -2.24405,-0.08576 -3.23772,4.970644 -2.24996,7.326803 0.43563,1.039128 1.9272,1.902302 2.99995,1.557667 1.25278,-0.402475 0.2605,-3.677842 1.78843,-3.519174 7.08036,0.735257 13.36794,-1.059146 19.78815,0.461532 2.97636,0.704974 6.5844,6.032903 8.29496,3.923613 2.37177,-2.92461 -2.26412,-9.029102 -6.12249,-9.712547 -7.05474,-1.249627 -19.56481,0.150671 -24.49904,-0.03789 z"
     style="opacity:1;fill:#e8fffe;fill-opacity:1;fill-rule:evenodd;stroke:none;stroke-width:0.80000001px;stroke-linecap:butt;stroke-linejoin:miter;stroke-opacity:1" />
  <path
     style="fill:#bf0000;fill-opacity:1;fill-rule:evenodd;stroke:none;stroke-width:0.80000001px;stroke-linecap:butt;stroke-linejoin:miter;stroke-opacity:1"
     d="m 113.10021,73.026512 c -0.69646,-0.610659 -0.73997,-2.049232 -0.16318,-2.773989 2.23287,-2.805684 7.16661,-0.782415 10.60643,-1.794934 1.58952,-0.467877 3.30537,-3.029986 4.56892,-1.95811 1.30276,1.105146 0.0442,3.832025 -1.22382,4.976862 -2.03828,1.840264 -5.428,0.852461 -8.15879,1.142231 -1.87093,0.19853 -4.2149,1.648322 -5.62956,0.40794 z"
     id="path5098"
     inkscape:connector-curvature="0"
     sodipodi:nodetypes="aaaaaaa" />
  <path
     sodipodi:nodetypes="aaaaaaa"
     inkscape:connector-curvature="0"
     id="path5015"
     d="m 113.10021,72.526512 c -0.69646,-0.610659 -0.73997,-2.049232 -0.16318,-2.773989 2.23287,-2.805684 7.16661,-0.782415 10.60643,-1.794934 1.58952,-0.467877 3.30537,-3.029986 4.56892,-1.95811 1.30276,1.105146 0.0442,3.832025 -1.22382,4.976862 -2.03828,1.840264 -5.428,0.852461 -8.15879,1.142231 -1.87093,0.19853 -4.2149,1.648322 -5.62956,0.40794 z"
     style="fill:#e8fffe;fill-opacity:1;fill-rule:evenodd;stroke:none;stroke-width:0.80000001px;stroke-linecap:butt;stroke-linejoin:miter;stroke-opacity:1" />
  <path
     sodipodi:nodetypes="aaaaaaa"
     inkscape:connector-curvature="0"
     id="path5096"
     d="m 111.87639,50.426659 c -0.75018,-0.788732 -0.0643,-2.442197 0.73429,-3.181929 2.6636,-2.467433 7.24236,-0.770594 10.7696,-1.631758 1.22817,-0.299854 2.67582,-2.097229 3.58987,-1.223819 1.12627,1.076203 -0.0976,3.503469 -1.30541,4.487335 -2.39019,1.947082 -6.16181,0.340473 -9.21943,0.734291 -1.53439,0.197628 -3.50272,1.936871 -4.56892,0.81588 z"
     style="fill:#bf0000;fill-opacity:1;fill-rule:evenodd;stroke:none;stroke-width:0.80000001px;stroke-linecap:butt;stroke-linejoin:miter;stroke-opacity:1" />
  <path
     style="fill:#e8fffe;fill-opacity:1;fill-rule:evenodd;stroke:none;stroke-width:0.80000001px;stroke-linecap:butt;stroke-linejoin:miter;stroke-opacity:1"
     d="m 111.87639,49.926659 c -0.75018,-0.788732 -0.0643,-2.442197 0.73429,-3.181929 2.6636,-2.467433 7.24236,-0.770594 10.7696,-1.631758 1.22817,-0.299854 2.67582,-2.097229 3.58987,-1.223819 1.12627,1.076203 -0.0976,3.503469 -1.30541,4.487335 -2.39019,1.947082 -6.16181,0.340473 -9.21943,0.734291 -1.53439,0.197628 -3.50272,1.936871 -4.56892,0.81588 z"
     id="path5017"
     inkscape:connector-curvature="0"
     sodipodi:nodetypes="aaaaaaa" />
  <path
     sodipodi:nodetypes="aaaaa"
     inkscape:connector-curvature="0"
     id="path5094"
     d="m 75.870965,58.928032 c -0.188136,-2.313174 4.145088,-2.638818 6.465248,-2.583812 2.265024,0.0537 6.50506,0.575739 6.184982,2.818676 -0.333132,2.334415 -4.644401,1.102926 -7.000862,1.015956 -1.927415,-0.07114 -5.493016,0.67156 -5.649368,-1.25082 z"
     style="fill:#bf0000;fill-opacity:1;fill-rule:evenodd;stroke:none;stroke-width:0.80000001px;stroke-linecap:butt;stroke-linejoin:miter;stroke-opacity:1" />
  <path
     style="fill:#e8fffe;fill-opacity:1;fill-rule:evenodd;stroke:none;stroke-width:0.80000001px;stroke-linecap:butt;stroke-linejoin:miter;stroke-opacity:1"
     d="m 75.870965,58.428032 c -0.188136,-2.313174 4.145088,-2.638818 6.465248,-2.583812 2.265024,0.0537 6.50506,0.575739 6.184982,2.818676 -0.333132,2.334415 -4.644401,1.102926 -7.000862,1.015956 -1.927415,-0.07114 -5.493016,0.67156 -5.649368,-1.25082 z"
     id="path5019"
     inkscape:connector-curvature="0"
     sodipodi:nodetypes="aaaaa" />
  <path
     style="fill:#bf0000;fill-opacity:1;fill-rule:evenodd;stroke:none;stroke-width:0.80000001px;stroke-linecap:butt;stroke-linejoin:miter;stroke-opacity:1"
     d="M 105.53516 35.384766 L 97.712891 36.357422 L 96.134766 41.251953 C 97.720849 41.329066 98.705246 38.12757 103.07617 37.990234 C 108.99874 37.804148 107.5563 41.063099 109.75 40.230469 C 109.80842 40.208293 109.86398 40.169019 109.92188 40.142578 L 109.35938 38.279297 L 105.53516 35.384766 z "
     transform="scale(0.8,0.8)"
     id="path5114" />
  <path
     sodipodi:nodetypes="aaaasaa"
     inkscape:connector-curvature="0"
     id="path5021"
     d="m 76.48535,26.373455 c 1.489319,-1.786941 4.483249,-1.892422 6.791599,-1.604757 2.42817,0.302597 5.824291,1.041272 6.511334,3.389791 0.373465,1.276617 -0.744723,2.987737 -1.988284,3.459737 -1.754957,0.666104 -0.600872,-1.939947 -5.33893,-1.791078 -4.101619,0.128874 -4.473181,3.642849 -6.269718,2.323712 -1.554293,-1.141266 -0.940564,-4.296132 0.293999,-5.777405 z"
     style="fill:#e8fffe;fill-opacity:1;fill-rule:evenodd;stroke:none;stroke-width:0.80000001px;stroke-linecap:butt;stroke-linejoin:miter;stroke-opacity:1" />
  <path
     style="fill:#bf0000;fill-opacity:1;fill-rule:evenodd;stroke:none;stroke-width:0.80000001px;stroke-linecap:butt;stroke-linejoin:miter;stroke-opacity:1"
     d="M 34.363281 34.087891 L 34.363281 39.087891 C 35.458263 38.170969 36.811204 36.665657 39.845703 36.570312 C 44.370049 36.428158 44.59903 38.290104 45.431641 38.808594 L 45.431641 34.087891 L 34.363281 34.087891 z "
     transform="scale(0.8,0.8)"
     id="path5084" />
  <path
     style="fill:#e8fffe;fill-opacity:1;fill-rule:evenodd;stroke:none;stroke-width:0.80000001px;stroke-linecap:butt;stroke-linejoin:miter;stroke-opacity:1"
     d="m 25.248139,27.189334 c 1.297611,-2.075321 4.425889,-2.545261 6.873187,-2.583812 2.493521,-0.03928 6.202638,0.07726 7.082449,2.410736 0.469261,1.244597 -0.744723,2.987737 -1.988284,3.459737 -1.754957,0.666104 -0.600872,-1.939947 -5.33893,-1.791078 -4.101619,0.128874 -4.38265,3.509732 -6.269718,2.323712 -1.08263,-0.680432 -1.036615,-2.735085 -0.358704,-3.819295 z"
     id="path5023"
     inkscape:connector-curvature="0"
     sodipodi:nodetypes="aaaasaa" />
  <path
     style="fill:#bf0000;fill-opacity:1;fill-rule:evenodd;stroke:none;stroke-width:0.80000001px;stroke-linecap:butt;stroke-linejoin:miter;stroke-opacity:1"
     d="m 65.480469,32.896484 -3.703125,6.15625 c 1.542794,0.656481 2.15765,-2.82079 6.828125,-2.810546 7.185645,0.01574 5.111747,2.772492 6.080078,2.9375 l 1.71875,-2.605469 -1.369141,-3.28125 z"
     transform="scale(0.8,0.8)"
     id="path5089"
     inkscape:connector-curvature="0"
     sodipodi:nodetypes="ccscccc" />
  <path
     sodipodi:nodetypes="aaaasaa"
     inkscape:connector-curvature="0"
     id="path5025"
     d="m 50.050865,25.068048 c 1.61168,-1.677414 4.479049,-1.856437 6.791599,-1.604757 2.214867,0.241049 5.396865,0.761762 6.021807,2.900264 0.469886,1.607916 -1.044085,3.769562 -2.640988,4.275616 -1.844795,0.584609 1.194062,-2.266299 -5.33893,-2.280606 -4.103633,-0.009 -4.306102,3.354184 -5.861778,1.997361 -1.353252,-1.180274 -0.215798,-3.993049 1.02829,-5.287878 z"
     style="fill:#e8fffe;fill-opacity:1;fill-rule:evenodd;stroke:none;stroke-width:0.80000001px;stroke-linecap:butt;stroke-linejoin:miter;stroke-opacity:1" />
  <path
     style="fill:#bf0000;fill-opacity:1;fill-rule:evenodd;stroke:none;stroke-width:0.80000001px;stroke-linecap:butt;stroke-linejoin:miter;stroke-opacity:1"
     d="m 33.878342,51.348296 c -0.770352,-0.769045 -0.03752,-2.414343 0.73429,-3.181929 0.790606,-0.786283 2.190356,-0.431578 3.263512,-0.734291 1.216766,-0.343222 2.675826,-2.09723 3.58987,-1.223819 1.12627,1.076203 -0.03258,3.589229 -1.30541,4.487335 -0.756827,0.534014 -1.851059,-0.241694 -2.773985,-0.163176 -1.196311,0.101776 -2.658581,1.664134 -3.508277,0.81588 z"
     id="path5082"
     inkscape:connector-curvature="0"
     sodipodi:nodetypes="aaaaaaa" />
  <path
     sodipodi:nodetypes="aaaaaaa"
     inkscape:connector-curvature="0"
     id="path5027"
     d="m 33.878342,50.742538 c -0.770352,-0.769045 -0.03752,-2.414343 0.73429,-3.181929 0.790606,-0.786283 2.190356,-0.431578 3.263512,-0.734291 1.216766,-0.343222 2.675826,-2.09723 3.58987,-1.223819 1.12627,1.076203 -0.03258,3.589229 -1.30541,4.487335 -0.756827,0.534014 -1.851059,-0.241694 -2.773985,-0.163176 -1.196311,0.101776 -2.658581,1.664134 -3.508277,0.81588 z"
     style="fill:#e8fffe;fill-opacity:1;fill-rule:evenodd;stroke:none;stroke-width:0.80000001px;stroke-linecap:butt;stroke-linejoin:miter;stroke-opacity:1" />
  <path
     style="fill:#b6edff;fill-opacity:1;fill-rule:evenodd;stroke:none;stroke-width:0.80000001px;stroke-linecap:butt;stroke-linejoin:miter;stroke-opacity:1"
     d="m 48.739309,27.990458 c -0.367146,1.142231 0.344719,2.202698 0.817577,2.452236 0.669829,0.353484 1.475606,-2.467421 5.999902,-2.307655 3.225722,0.11391 4.040123,1.409393 4.197472,2.073389 0.184544,0.778752 2.002301,-0.691096 2.532621,-1.445783 -1.692949,-0.101985 -4.485823,-1.951213 -6.81868,-1.94461 -2.332857,0.0066 -4.893164,1.315202 -6.728892,1.172423 z"
     id="path5031"
     inkscape:connector-curvature="0"
     sodipodi:nodetypes="cssscsc" />
  <path
     sodipodi:nodetypes="cssscsc"
     inkscape:connector-curvature="0"
     id="path5033"
     d="m 25.14354,28.091418 c -0.367146,1.142231 0.128376,2.678651 1.163725,2.812807 0.751099,0.09732 1.691949,-2.366461 5.783559,-2.437461 3.227247,-0.056 3.867049,1.135359 4.312855,1.712818 0.48907,0.6335 1.901341,-0.835324 2.431661,-1.590011 -1.692949,-0.101985 -4.384863,-1.806985 -6.71772,-1.800382 -2.332857,0.0066 -5.138352,1.445008 -6.97408,1.302229 z"
     style="fill:#b6edff;fill-opacity:1;fill-rule:evenodd;stroke:none;stroke-width:0.80000001px;stroke-linecap:butt;stroke-linejoin:miter;stroke-opacity:1" />
  <path
     sodipodi:nodetypes="cssscsc"
     inkscape:connector-curvature="0"
     id="path5035"
     d="m 75.622527,29.357056 c -0.367146,1.142231 0.467101,2.549446 1.266311,2.656206 0.75071,0.10028 1.740767,-2.385834 5.795932,-2.450434 3.227323,-0.05141 4.040123,1.083041 4.319854,1.747037 0.310714,0.737542 1.961507,-0.915463 2.491827,-1.67015 -1.692949,-0.101985 -4.91416,-1.502479 -7.247017,-1.495876 -2.332857,0.0066 -4.791179,1.355996 -6.626907,1.213217 z"
     style="fill:#b6edff;fill-opacity:1;fill-rule:evenodd;stroke:none;stroke-width:0.80000001px;stroke-linecap:butt;stroke-linejoin:miter;stroke-opacity:1" />
  <path
     style="fill:#b6edff;fill-opacity:1;fill-rule:evenodd;stroke:none;stroke-width:0.80000001px;stroke-linecap:butt;stroke-linejoin:miter;stroke-opacity:1"
     d="m 102.10728,31.569413 c 1.35991,1.250684 2.67551,1.97183 3.79383,0.326352 -0.0865,1.240364 -0.13425,2.537909 -1.41294,2.301359 -1.09226,-0.202062 -2.26551,-1.531575 -2.38089,-2.627711 z"
     id="path5037"
     inkscape:connector-curvature="0"
     sodipodi:nodetypes="ccsc" />
  <path
     style="fill:#b6edff;fill-opacity:1;fill-rule:evenodd;stroke:none;stroke-width:0.80000001px;stroke-linecap:butt;stroke-linejoin:miter;stroke-opacity:1"
     d="m 106.83938,29.203363 c 4.83408,0.693497 14.19095,-1.095931 20.49896,0.591512 2.74469,0.734227 3.82893,3.690074 6.66981,3.732648 0.63846,0.0096 1.42779,-0.734292 1.42779,-0.734292 0,0 -0.13943,2.213602 -0.79548,2.549623 -1.66367,0.852113 -5.05619,-3.694161 -8.118,-4.303762 -6.62687,-1.319399 -15.84665,0.357775 -19.43831,-0.326352 -0.42834,-0.08159 -0.24477,-1.509377 -0.24477,-1.509377 z"
     id="path5039"
     inkscape:connector-curvature="0"
     sodipodi:nodetypes="csscsssc" />
  <path
     sodipodi:nodetypes="ccsc"
     inkscape:connector-curvature="0"
     id="path5041"
     d="m 208.43033,31.397189 c 1.35991,1.250684 2.67551,1.97183 3.79383,0.326352 -0.0865,1.240364 -0.13425,2.537909 -1.41294,2.301359 -1.09226,-0.202062 -2.26551,-1.531575 -2.38089,-2.627711 z"
     style="fill:#b6edff;fill-opacity:1;fill-rule:evenodd;stroke:none;stroke-width:0.80000001px;stroke-linecap:butt;stroke-linejoin:miter;stroke-opacity:1" />
  <path
     sodipodi:nodetypes="cssscssssc"
     inkscape:connector-curvature="0"
     id="path5043"
     d="m 212.88982,29.172116 c 3.79622,0.544605 8.27382,-0.55643 13.35555,-0.639261 2.20492,-0.03594 6.51165,1.277382 7.30163,1.225823 2.04811,-0.133672 2.08121,3.510773 3.38636,3.583471 0.81452,0.04537 1.31445,-0.819981 1.54522,-1.339203 0,0 -0.28571,2.266344 -1.40329,2.486983 -1.42105,0.280552 -1.92355,-2.266967 -3.31645,-3.283832 -1.24464,-0.90864 -4.94736,-1.364474 -6.18614,-1.337233 -6.75531,0.148552 -10.68327,1.251991 -14.27493,0.567864 -0.42834,-0.08159 -0.40795,-1.264613 -0.40795,-1.264612 z"
     style="fill:#b6edff;fill-opacity:1;fill-rule:evenodd;stroke:none;stroke-width:0.80000001px;stroke-linecap:butt;stroke-linejoin:miter;stroke-opacity:1" />
  <path
     style="fill:#b6edff;fill-opacity:1;fill-rule:evenodd;stroke:none;stroke-width:0.80000001px;stroke-linecap:butt;stroke-linejoin:miter;stroke-opacity:1"
     d="m 173.18894,32.731151 c -0.2085,1.142231 0.23173,2.21774 1.03554,2.281212 1.26993,0.10028 2.37537,-2.039688 4.52672,-2.017748 1.40674,0.01435 8.31547,-1.478735 11.5202,-1.237192 4.14803,0.31264 3.9529,2.41223 5.54944,2.63808 0.79243,0.1121 1.75959,-1.232765 1.88608,-2.448983 -0.60037,0.963006 -0.75393,1.176648 -1.73717,1.089843 -1.32153,-0.116669 -2.70661,-2.688873 -3.97368,-2.687103 -1.87366,0.0026 -9.77227,1.11669 -12.68882,1.176475 -3.14608,0.06449 -3.0532,2.405767 -4.92309,2.446977 -0.30965,0.0068 -1.00113,-0.513587 -1.19522,-1.241561 z"
     id="path5045"
     inkscape:connector-curvature="0"
     sodipodi:nodetypes="csssscssssc" />
  <path
     style="fill:#b6edff;fill-opacity:1;fill-rule:evenodd;stroke:none;stroke-width:0.80000001px;stroke-linecap:butt;stroke-linejoin:miter;stroke-opacity:1"
     d="m 216.35419,47.097976 c -0.36715,1.142231 0.31637,1.874934 1.12207,1.906218 1.09686,0.04259 4.01958,-2.876211 6.31516,-2.854274 1.50882,0.01442 3.15883,0.406565 4.7471,1.260826 1.80926,0.973124 2.60336,2.728888 4.04383,2.649638 1.20411,-0.06625 2.3365,-1.146229 2.57837,-2.07399 -0.96983,0.680045 -1.49237,0.840323 -2.5879,0.794297 -2.39746,-0.100722 -3.2813,-3.643215 -8.12061,-3.732457 -4.81301,-0.08876 -5.2793,2.841544 -7.05234,2.810481 -0.4338,-0.0076 -0.89862,-0.316297 -1.04568,-0.760739 z"
     id="path5049"
     inkscape:connector-curvature="0"
     sodipodi:nodetypes="csssscsssc" />
  <path
     sodipodi:nodetypes="cssssscsssssc"
     inkscape:connector-curvature="0"
     id="path5051"
     d="m 139.68515,33.202582 c 0.36841,1.401841 0.61432,2.493999 1.15297,2.455486 1.27064,-0.09085 2.21768,-2.116243 4.07339,-3.204874 1.20482,-0.706792 6.45863,-2.77776 10.05592,-2.907693 3.28504,-0.118655 8.44266,1.721833 10.52851,2.862564 1.68608,0.922105 4.74402,3.97562 5.92806,4.048982 0.79879,0.04949 1.44229,-1.809678 1.59762,-2.679748 -0.60037,0.963006 -0.89711,1.077284 -1.8814,1.003305 -1.55229,-0.116669 -3.5251,-3.370615 -4.76333,-3.888079 -0.82083,-0.343034 -6.10361,-2.231134 -9.82665,-2.55243 -4.11811,-0.355391 -7.84377,0.795012 -9.51186,1.508139 -2.89343,1.236967 -4.42596,4.247646 -6.29585,4.288856 -0.30965,0.0068 -0.69022,-0.03346 -1.05738,-0.934508 z"
     style="fill:#b6edff;fill-opacity:1;fill-rule:evenodd;stroke:none;stroke-width:0.80000001px;stroke-linecap:butt;stroke-linejoin:miter;stroke-opacity:1" />
  <path
     style="fill:#b6edff;fill-opacity:1;fill-rule:evenodd;stroke:none;stroke-width:0.80000001px;stroke-linecap:butt;stroke-linejoin:miter;stroke-opacity:1"
     d="m 218.10222,69.355522 c 0.309,1.615257 2.42368,3.310963 4.15378,3.374945 2.07355,0.07668 4.70185,-2.423038 4.75954,-3.692248 -0.75149,1.439192 -2.23913,2.182291 -4.67224,2.234882 -2.27331,0.04914 -3.58193,-0.526419 -4.24108,-1.917579 z"
     id="path5053"
     inkscape:connector-curvature="0"
     sodipodi:nodetypes="cscsc" />
  <path
     sodipodi:nodetypes="cscsc"
     inkscape:connector-curvature="0"
     id="path5055"
     d="m 149.16719,69.125606 c 0.309,1.615257 4.00903,3.913585 5.74029,3.923013 3.48699,0.01899 7.41334,-2.27881 7.29796,-3.778785 -0.75149,1.439192 -2.81697,1.963802 -6.51836,2.061808 -3.3986,0.08999 -5.86074,-0.814876 -6.51989,-2.206036 z"
     style="fill:#b6edff;fill-opacity:1;fill-rule:evenodd;stroke:none;stroke-width:0.80000001px;stroke-linecap:butt;stroke-linejoin:miter;stroke-opacity:1" />
  <path
     style="fill:#b6edff;fill-opacity:1;fill-rule:evenodd;stroke:none;stroke-width:0.80000001px;stroke-linecap:butt;stroke-linejoin:miter;stroke-opacity:1"
     d="m 150.22832,45.644369 c -0.25961,1.87497 1.00342,3.581105 2.79804,4.096088 4.00696,1.149835 4.33185,0.9128 8.596,1.817277 2.01212,0.426793 4.30868,1.966884 5.16339,1.961507 0.76148,-0.0048 1.75959,-1.384594 1.64421,-1.817279 0,0 -0.87881,0.369586 -1.87497,0.374995 -2.34024,0.01271 -5.24798,-2.633059 -13.61601,-3.764787 -2.08279,-0.281685 -2.71066,-2.667801 -2.71066,-2.667801 z"
     id="path5057"
     inkscape:connector-curvature="0"
     sodipodi:nodetypes="cssscssc" />
  <path
     style="fill:#b6edff;fill-opacity:1;fill-rule:evenodd;stroke:none;stroke-width:0.80000001px;stroke-linecap:butt;stroke-linejoin:miter;stroke-opacity:1"
     d="m 76.124852,57.65782 c -0.20397,1.162628 0.242734,1.549994 0.980753,1.738342 0.733857,0.187286 2.148663,0.121835 3.858219,0.0584 2.185185,-0.08109 4.376715,0.522349 5.482482,0.400836 0.890208,-0.09783 2.14508,-0.813478 1.879918,-1.894517 -1.48898,1.75414 -4.159472,0.210867 -6.492329,0.21747 -2.332857,0.0066 -4.72829,1.217816 -5.709043,-0.520531 z"
     id="path5059"
     inkscape:connector-curvature="0"
     sodipodi:nodetypes="cssscsc" />
  <path
     style="fill:#b6edff;fill-opacity:1;fill-rule:evenodd;stroke:none;stroke-width:0.80000001px;stroke-linecap:butt;stroke-linejoin:miter;stroke-opacity:1"
     d="m 111.74818,48.38471 c -0.0865,0.778833 0.19182,1.681949 0.83652,1.701894 1.7062,0.05279 2.40712,-1.143846 4.12494,-1.211518 2.25026,-0.08865 3.96562,0.365597 6.6345,0.20192 1.99789,-0.122527 3.37495,-2.019198 3.7211,-3.028797 0,0 -1.7309,1.677871 -3.14418,1.644204 -2.40435,-0.05728 -3.99142,0.401496 -7.0095,0.05769 -1.63757,-0.186548 -2.84913,1.397694 -4.09609,1.442285 -0.46443,0.01661 -1.06729,-0.807678 -1.06729,-0.807675 z"
     id="path5061"
     inkscape:connector-curvature="0"
     sodipodi:nodetypes="cssscsssc" />
  <path
     sodipodi:nodetypes="cssscsssc"
     inkscape:connector-curvature="0"
     id="path5063"
     d="m 112.75778,71.086263 c -0.0865,0.778833 0.5665,1.732142 1.21151,1.73074 2.25427,-0.0049 2.95519,-0.826543 4.67301,-0.894215 2.25026,-0.08865 2.95602,0.07714 5.6249,-0.08654 1.99789,-0.122527 3.51918,-1.788433 3.89417,-3.057643 0,0 -1.90397,1.706717 -3.31725,1.67305 -2.40435,-0.05728 -3.0972,0.545724 -6.11528,0.201918 -1.63757,-0.186548 -3.28182,1.22462 -4.52878,1.269211 -0.46443,0.01661 -1.44228,-0.836524 -1.44228,-0.836524 z"
     style="fill:#b6edff;fill-opacity:1;fill-rule:evenodd;stroke:none;stroke-width:0.80000001px;stroke-linecap:butt;stroke-linejoin:miter;stroke-opacity:1" />
  <path
     style="fill:#b6edff;fill-opacity:1;fill-rule:evenodd;stroke:none;stroke-width:0.80000001px;stroke-linecap:butt;stroke-linejoin:miter;stroke-opacity:1"
     d="m 33.699449,49.249232 c -0.0865,0.778833 0.03409,1.5034 0.677868,1.543243 1.086018,0.06721 2.016219,-0.94275 3.129764,-0.96633 0.878329,-0.0186 1.20978,0.245083 1.903808,0.274035 0.913222,0.03809 1.261921,-0.651459 2.033628,-1.817278 -0.692297,0.807679 -1.050512,1.089703 -1.860548,1.124981 -0.678133,0.02953 -1.279951,-0.512474 -2.062465,-0.519224 -1.100086,-0.0095 -1.781839,1.152505 -3.028799,1.197096 -0.46443,0.01661 -0.793256,-0.836524 -0.793256,-0.836523 z"
     id="path5061-9"
     inkscape:connector-curvature="0"
     sodipodi:nodetypes="cssscsssc" />
  <path
     style="fill:#4d4d4d;fill-opacity:1;fill-rule:nonzero;stroke:none;stroke-width:0.673769;stroke-linecap:round;stroke-linejoin:miter;stroke-miterlimit:4;stroke-opacity:1"
     d="m 8.1831429,93.251738 249.5527971,0 0,0.509925 -249.5527971,0 z m 0,0"
     id="path4337"
     inkscape:connector-curvature="0" />
  <path
     inkscape:connector-curvature="0"
     id="path4341"
     d="m 8.1831429,88.614238 249.5527971,0 0,0.509925 -249.5527971,0 z m 0,0"
     style="fill:#cccccc;fill-opacity:1;fill-rule:nonzero;stroke:none;stroke-width:0.673769;stroke-linecap:round;stroke-linejoin:miter;stroke-miterlimit:4;stroke-opacity:1" />
  <path
     inkscape:connector-curvature="0"
     id="path4343"
     d="m 8.1831429,17.026737 249.5527971,0 0,0.509925 -249.5527971,0 z m 0,0"
     style="fill:#4d4d4d;fill-opacity:1;fill-rule:nonzero;stroke:none;stroke-width:0.673769;stroke-linecap:round;stroke-linejoin:miter;stroke-miterlimit:4;stroke-opacity:1" />
  <path
     style="fill:#cccccc;fill-opacity:1;fill-rule:nonzero;stroke:none;stroke-width:0.673769;stroke-linecap:round;stroke-linejoin:miter;stroke-miterlimit:4;stroke-opacity:1"
     d="m 8.1831429,12.089237 249.5527971,0 0,0.509925 -249.5527971,0 z m 0,0"
     id="path4345"
     inkscape:connector-curvature="0" />
</svg>
