<?xml version="1.0" encoding="UTF-8" standalone="no"?>
<!-- Created with Inkscape (http://www.inkscape.org/) -->

<svg
   xmlns:dc="http://purl.org/dc/elements/1.1/"
   xmlns:cc="http://creativecommons.org/ns#"
   xmlns:rdf="http://www.w3.org/1999/02/22-rdf-syntax-ns#"
   xmlns:svg="http://www.w3.org/2000/svg"
   xmlns="http://www.w3.org/2000/svg"
   xmlns:sodipodi="http://sodipodi.sourceforge.net/DTD/sodipodi-0.dtd"
   xmlns:inkscape="http://www.inkscape.org/namespaces/inkscape"
   width="744.09448819"
   height="1052.3622047"
   id="svg3037"
   version="1.1"
   inkscape:version="0.48.4 r9939"
   sodipodi:docname="New document 2">
  <defs
     id="defs3039" />
  <sodipodi:namedview
     id="base"
     pagecolor="#ffffff"
     bordercolor="#666666"
     borderopacity="1.0"
     inkscape:pageopacity="0.0"
     inkscape:pageshadow="2"
     inkscape:zoom="0.35"
     inkscape:cx="375"
     inkscape:cy="520"
     inkscape:document-units="px"
     inkscape:current-layer="layer1"
     showgrid="false"
     inkscape:window-width="463"
     inkscape:window-height="423"
     inkscape:window-x="175"
     inkscape:window-y="175"
     inkscape:window-maximized="0" />
  <metadata
     id="metadata3042">
    <rdf:RDF>
      <cc:Work
         rdf:about="">
        <dc:format>image/svg+xml</dc:format>
        <dc:type
           rdf:resource="http://purl.org/dc/dcmitype/StillImage" />
        <dc:title></dc:title>
      </cc:Work>
    </rdf:RDF>
  </metadata>
  <g
     inkscape:label="Layer 1"
     inkscape:groupmode="layer"
     id="layer1">
    <path
       style="fill:#ff8400;fill-opacity:1;stroke:none"
       d="m 296.84385,535.15798 c 0,0 112.8937,65.3079 142.2165,10.8846 0,0 -55.7135,9.5241 -20.5259,-20.4086 35.1876,-29.9329 35.1876,-29.9329 35.1876,-29.9329 0,0 60.1121,-32.654 41.0521,-99.3223 0,0 -2.9324,-14.9665 -26.3907,-21.7694 0,0 20.5261,20.4088 4.3985,35.3751 0,0 -15.6112,13.5255 -29.323,-24.4904 -11.6713,-32.3588 0,-50.3415 0,-50.3415 l 0,0 c 0,0 27.8569,-38.0963 -19.06,-73.47139 0,0 14.6614,14.9663 -13.1952,51.70209 0,0 -35.1876,51.702 -52.7814,-17.6876 0,0 2.9322,-50.34149 32.2552,-63.94719 0,0 24.9245,-17.6876 13.1953,-34.0146 -11.7291,-16.327 -11.7291,-14.9664 -11.7291,-14.9664 0,0 10.2631,25.8509 -33.7214,38.0962 0,0 -76.2399,38.0963 -57.1799,81.63489 0,0 27.8568,84.3561 -16.1277,73.4714 0,0 -29.323,-6.8029 -21.9923,-51.7021 0,0 -10.2631,46.2598 -21.9921,59.8656 0,0 -46.9169,87.0771 55.7135,151.0245 z"
       id="path30950-3-1"
       inkscape:connector-curvature="0"
       sodipodi:nodetypes="ccsccccsccccccsccccccc"
       inkscape:export-filename="C:\Users\MetteBBrock\Dropbox\DTU\KABS 16\kabs-stor-logo-ny.pdf.png"
       inkscape:export-xdpi="90"
       inkscape:export-ydpi="90" />
    <text
       xml:space="preserve"
       style="font-size:166.3434906px;font-style:normal;font-variant:normal;font-weight:bold;font-stretch:normal;line-height:125%;letter-spacing:0px;word-spacing:0px;fill:#000000;fill-opacity:1;stroke:none;font-family:Kokila;-inkscape-font-specification:Kokila Bold"
       x="93.449821"
       y="449.69287"
       id="text3845-4-3-6-20"
       sodipodi:linespacing="125%"
       inkscape:export-filename="C:\Users\MetteBBrock\Dropbox\DTU\KABS 16\kabs-stor-logo-ny.pdf.png"
       inkscape:export-xdpi="90"
       inkscape:export-ydpi="90"
       transform="scale(1.0132484,0.98692482)"><tspan
         sodipodi:role="line"
         id="tspan3847-0-22-18-0"
         x="93.449821"
         y="449.69287"
         style="font-size:166.3434906px;font-style:normal;font-variant:normal;font-weight:bold;font-stretch:normal;stroke:none;font-family:Kokila;-inkscape-font-specification:Kokila Bold">KABS 16 </tspan></text>
    <path
       style="fill:#d62424;fill-opacity:1;stroke:#000000;stroke-width:2.25;stroke-linecap:butt;stroke-linejoin:miter;stroke-miterlimit:4;stroke-opacity:1;stroke-dasharray:none"
       d="m 45.329755,411.81628 c 0,0 14.972796,-7.3922 35.597396,-7.9898 20.624599,-0.5974 50.102899,-19.5371 50.102899,-19.5371 0,0 19.61029,-22.6578 18.96079,-32.7813 -0.6496,-10.1235 -3.2248,-12.7403 -3.2248,-12.7403 0,0 -4.3301,-8.0803 -23.38229,-7.9879 17.70759,22.7255 -3.8397,33.9517 -3.8397,33.9517 0,0 -22.220003,22.6351 -31.153399,27.2266 -8.9334,4.5915 -25.0914,2.8932 -25.0914,2.8932 z"
       id="path3905-5-6-1-2-8-3-4"
       inkscape:connector-curvature="0"
       sodipodi:nodetypes="cscscc"
       inkscape:export-filename="C:\Users\MetteBBrock\Dropbox\DTU\KABS 16\kabs-stor-logo-ny.pdf.png"
       inkscape:export-xdpi="90"
       inkscape:export-ydpi="90" />
    <path
       style="fill:#d62424;fill-opacity:1;stroke:#000000;stroke-width:2.25;stroke-linecap:butt;stroke-linejoin:miter;stroke-miterlimit:4;stroke-opacity:1;stroke-dasharray:none"
       d="m 50.532955,336.67118 c 0,0 3.748796,-7.2312 7.178496,-10.055 0,0 18.4027,-10.2158 27.8376,-13.2462 l 31.609299,17.3993 z"
       id="path3913-7-1-6-45-9-7-6"
       inkscape:connector-curvature="0"
       sodipodi:nodetypes="ccc"
       inkscape:export-filename="C:\Users\MetteBBrock\Dropbox\DTU\KABS 16\kabs-stor-logo-ny.pdf.png"
       inkscape:export-xdpi="90"
       inkscape:export-ydpi="90" />
    <path
       style="fill:#d62424;fill-opacity:1;stroke:#000000;stroke-width:2.25;stroke-linecap:butt;stroke-linejoin:miter;stroke-miterlimit:4;stroke-opacity:1;stroke-dasharray:none"
       d="m 52.578351,349.79018 -2.187896,-12.2124 c 0,0 18.436796,-12.8099 27.085396,-15.5878 l 13.1952,8.6769 15.987099,14.6681 z"
       id="path3909-1-4-8-5-2-8-0"
       inkscape:connector-curvature="0"
       sodipodi:nodetypes="ccc"
       inkscape:export-filename="C:\Users\MetteBBrock\Dropbox\DTU\KABS 16\kabs-stor-logo-ny.pdf.png"
       inkscape:export-xdpi="90"
       inkscape:export-ydpi="90" />
    <path
       style="fill:#d62424;fill-opacity:1;stroke:#000000;stroke-width:2.25;stroke-linecap:butt;stroke-linejoin:miter;stroke-miterlimit:4;stroke-opacity:1;stroke-dasharray:none"
       d="m 80.746151,321.37018 5.3214,-7.7365 21.775599,11.0871 -13.502799,14.6691 z"
       id="path3911-1-5-2-5-17-7-8-7"
       inkscape:connector-curvature="0"
       inkscape:export-filename="C:\Users\MetteBBrock\Dropbox\DTU\KABS 16\kabs-stor-logo-ny.pdf.png"
       inkscape:export-xdpi="90"
       inkscape:export-ydpi="90" />
    <path
       style="fill:#d62424;fill-opacity:1;stroke:#000000;stroke-width:2.25;stroke-linecap:butt;stroke-linejoin:miter;stroke-miterlimit:4;stroke-opacity:1;stroke-dasharray:none"
       d="m 61.852251,393.72878 c 0,0 -19.131996,-13.6582 -8.0336,-43.9141 0,0 15.6108,-16.2074 39.2778,-10.0329 23.667099,6.1742 35.290099,15.3561 35.290099,15.3561 0,0 -24.4304,31.9553 -40.941399,37.2586 -16.5112,5.3033 -25.5929,1.3323 -25.5929,1.3323 z"
       id="path3907-2-3-7-1-9-2-1"
       inkscape:connector-curvature="0"
       sodipodi:nodetypes="cc"
       inkscape:export-filename="C:\Users\MetteBBrock\Dropbox\DTU\KABS 16\kabs-stor-logo-ny.pdf.png"
       inkscape:export-xdpi="90"
       inkscape:export-ydpi="90" />
    <path
       style="fill:#ff8400;fill-opacity:1;stroke:#000000;stroke-width:2.25;stroke-linecap:butt;stroke-linejoin:miter;stroke-miterlimit:4;stroke-opacity:1;stroke-dasharray:none"
       d="m 93.892651,349.43518 14.448499,12.5797 13.047,0.1144 c 0,0 11.8621,-8.9763 12.181,-13.3836 0.3191,-4.4077 -7.6232,-15.6327 -7.6232,-15.6327 l -14.4829,-9.9852 -13.616803,3.5127 z"
       id="path3915-7-2-6-1-5-9-7"
       inkscape:connector-curvature="0"
       inkscape:export-filename="C:\Users\MetteBBrock\Dropbox\DTU\KABS 16\kabs-stor-logo-ny.pdf.png"
       inkscape:export-xdpi="90"
       inkscape:export-ydpi="90" />
    <path
       style="fill:none;stroke:#000000;stroke-width:2.25;stroke-linecap:butt;stroke-linejoin:miter;stroke-miterlimit:4;stroke-opacity:1;stroke-dasharray:none"
       d="m 80.076251,394.89488 c 0,0 -22.2427,-15.2419 -17.6167,-49.4461 8.1473,-4.3389 9.2184,-6.4049 9.2184,-6.4049 0,0 -3.5325,10.6056 28.908899,44.0971"
       id="path4112-2-1-5-4-13-7"
       inkscape:connector-curvature="0"
       sodipodi:nodetypes="cccc"
       inkscape:export-filename="C:\Users\MetteBBrock\Dropbox\DTU\KABS 16\kabs-stor-logo-ny.pdf.png"
       inkscape:export-xdpi="90"
       inkscape:export-ydpi="90" />
    <path
       style="fill:#000000;fill-opacity:1;stroke:#000000;stroke-width:3;stroke-linecap:butt;stroke-linejoin:miter;stroke-miterlimit:4;stroke-opacity:1;stroke-dasharray:none"
       d="m 39.440455,524.85278 c 0,0 47.865396,-73.6663 206.126095,-40.0655 160.4498,34.0655 173.4611,31.199 173.4611,31.199 0,0 163.0277,4.8665 239.6751,-60.8313 l 11.558,-6.0832 -15.8162,-15.8161 0,0 c 0,0 -65.6977,66.9144 -231.1587,63.2646 l -181.7117,-32.7041 c -60.4448,-13.3089 -125.9424,-27.023 -205.175195,35.1373"
       id="path3873-0-0"
       inkscape:connector-curvature="0"
       sodipodi:nodetypes="cscccccccc"
       inkscape:export-filename="C:\Users\MetteBBrock\Dropbox\DTU\KABS 16\kabs-stor-logo-ny.pdf.png"
       inkscape:export-xdpi="90"
       inkscape:export-ydpi="90" />
    <path
       style="fill:#ff8400;fill-opacity:1;stroke:#000000;stroke-width:2.25;stroke-linecap:butt;stroke-linejoin:miter;stroke-miterlimit:4;stroke-opacity:1;stroke-dasharray:none"
       d="m 658.82285,428.19308 8.4754,19.235 39.5917,-31.4513 c 0,0 6.9706,0.9915 5.4371,-5.5463 -1.5335,-6.5376 -3.0752,-9.7309 -3.0752,-9.7309 0,0 -6.1896,-3.5752 -10.8497,1.0592 -4.6602,4.6347 -39.5793,26.4343 -39.5793,26.4343 z"
       id="path4190-8-2-5-4-3"
       inkscape:connector-curvature="0"
       inkscape:export-filename="C:\Users\MetteBBrock\Dropbox\DTU\KABS 16\kabs-stor-logo-ny.pdf.png"
       inkscape:export-xdpi="90"
       inkscape:export-ydpi="90" />
    <path
       style="fill:none;stroke:#000000;stroke-width:1.88750005;stroke-linecap:butt;stroke-linejoin:miter;stroke-miterlimit:4;stroke-opacity:1;stroke-dasharray:none"
       d="m 696.57435,403.09838 c 0,0 10.0725,-0.1475 10.8331,5.6299"
       id="path4192-7-1-1-3-9"
       inkscape:connector-curvature="0"
       sodipodi:nodetypes="cc"
       inkscape:export-filename="C:\Users\MetteBBrock\Dropbox\DTU\KABS 16\kabs-stor-logo-ny.pdf.png"
       inkscape:export-xdpi="90"
       inkscape:export-ydpi="90" />
    <path
       style="fill:#ff8400;fill-opacity:1;stroke:#000000;stroke-width:2.25;stroke-linecap:butt;stroke-linejoin:miter;stroke-miterlimit:4;stroke-opacity:1;stroke-dasharray:none"
       d="m 644.51745,471.86868 25.6175,-20.0557 c 0,0 0.051,-20.9033 -12.3359,-24.7093 l -22.5072,15.5723 11.5917,12.2431 z"
       id="path4188-9-7-7-07-5"
       inkscape:connector-curvature="0"
       sodipodi:nodetypes="ccc"
       inkscape:export-filename="C:\Users\MetteBBrock\Dropbox\DTU\KABS 16\kabs-stor-logo-ny.pdf.png"
       inkscape:export-xdpi="90"
       inkscape:export-ydpi="90" />
    <path
       style="fill:#ff8400;fill-opacity:1;stroke:#000000;stroke-width:2.25;stroke-linecap:butt;stroke-linejoin:miter;stroke-miterlimit:4;stroke-opacity:1;stroke-dasharray:none"
       d="m 630.29435,446.50748 c 0,0 17.8203,-0.068 11.5609,24.7851 l 2.3106,5.6259 c 0,0 8.5391,-6.6851 5.4844,-24.7774 0,0 -5.396,-11.1762 -12.3606,-14.6757 z"
       id="path4186-2-6-6-6-9"
       inkscape:connector-curvature="0"
       sodipodi:nodetypes="ccccc"
       inkscape:export-filename="C:\Users\MetteBBrock\Dropbox\DTU\KABS 16\kabs-stor-logo-ny.pdf.png"
       inkscape:export-xdpi="90"
       inkscape:export-ydpi="90" />
  </g>
</svg>
