<?xml version="1.0" encoding="UTF-8" standalone="no"?>
<!-- Created with Inkscape (http://www.inkscape.org/) -->

<svg
   xmlns:dc="http://purl.org/dc/elements/1.1/"
   xmlns:cc="http://creativecommons.org/ns#"
   xmlns:rdf="http://www.w3.org/1999/02/22-rdf-syntax-ns#"
   xmlns:svg="http://www.w3.org/2000/svg"
   xmlns="http://www.w3.org/2000/svg"
   xmlns:sodipodi="http://sodipodi.sourceforge.net/DTD/sodipodi-0.dtd"
   xmlns:inkscape="http://www.inkscape.org/namespaces/inkscape"
   width="132.74969"
   height="70.826378"
   id="svg4196"
   version="1.1"
   inkscape:version="0.48.4 r9939"
   sodipodi:docname="pfdtu.svg">
  <defs
     id="defs4198">
    <clipPath
       clipPathUnits="userSpaceOnUse"
       id="clipPath16">
      <path
         d="m 0,841.89 595.276,0 L 595.276,0 0,0 0,841.89 z"
         id="path18"
         inkscape:connector-curvature="0" />
    </clipPath>
  </defs>
  <sodipodi:namedview
     id="base"
     pagecolor="#ffffff"
     bordercolor="#666666"
     borderopacity="1.0"
     inkscape:pageopacity="0.0"
     inkscape:pageshadow="2"
     inkscape:zoom="0.7"
     inkscape:cx="-96.267451"
     inkscape:cy="-51.995288"
     inkscape:document-units="px"
     inkscape:current-layer="layer1"
     showgrid="false"
     fit-margin-top="0"
     fit-margin-left="0"
     fit-margin-right="0"
     fit-margin-bottom="0"
     inkscape:window-width="1366"
     inkscape:window-height="744"
     inkscape:window-x="0"
     inkscape:window-y="24"
     inkscape:window-maximized="1" />
  <metadata
     id="metadata4201">
    <rdf:RDF>
      <cc:Work
         rdf:about="">
        <dc:format>image/svg+xml</dc:format>
        <dc:type
           rdf:resource="http://purl.org/dc/dcmitype/StillImage" />
        <dc:title />
      </cc:Work>
    </rdf:RDF>
  </metadata>
  <g
     inkscape:label="Layer 1"
     inkscape:groupmode="layer"
     id="layer1"
     transform="translate(-244.40175,-296.32974)">
    <path
       style="fill:#000000;fill-opacity:1;stroke:none;opacity:0.55967078"
       d="m 291.95494,300.54885 c -5.6211,0 -10.73488,3.83657 -10.84308,11.62529 l 0.0269,2.4815 -4.69327,0 0,4.80117 c -2.49618,-3.57632 -6.42132,-6.15431 -12.32659,-6.01495 -5.66714,0.13374 -8.46455,3.31916 -9.46747,4.80117 l 0,-3.4795 -10.24968,0 0,48.17349 10.24968,0 0,-15.56332 c 0.51947,1.02511 3.00814,5.11206 9.57536,5.09786 12.34008,-0.0267 16.19074,-11.59311 16.02187,-20.17568 -0.0605,-3.07664 -0.71499,-6.79825 -2.26572,-10.11482 l 3.15582,0 0,29.21159 10.65427,0 0,-29.21159 6.6623,0 0,-7.52542 -6.6623,0 0.0269,-2.15783 c 0.0306,-2.40754 1.93438,-3.39857 2.69729,-3.39857 l 3.93803,0 0,-8.49645 -6.50045,-0.0539 z m -29.23855,21.41643 c 4.39703,-0.0319 8.25096,3.86948 8.17277,10.3306 -0.0956,7.89986 -2.78775,11.19468 -7.63332,11.35556 -6.35343,0.21095 -8.61456,-6.31142 -8.49644,-11.24767 0.10481,-4.3801 2.48594,-10.39872 7.95699,-10.43849 z"
       id="rect2996"
       inkscape:connector-curvature="0" />
    <g
       transform="matrix(1.25,0,0,-1.25,-143.60418,856.88762)"
       id="g12"
       style="fill:#000000;fill-opacity:1;opacity:0.55967078">
      <g
         id="g14"
         clip-path="url(#clipPath16)"
         style="fill:#000000;fill-opacity:1">
        <g
           id="g20"
           transform="translate(380.2627,448.4463)"
           style="fill:#000000;fill-opacity:1">
          <path
             d="m 0,0 c -0.154,0 -0.249,-0.047 -0.317,-0.115 -0.069,-0.069 -0.114,-0.162 -0.114,-0.318 l 0,-19.712 c 0,-0.154 0.045,-0.249 0.114,-0.317 0.068,-0.068 0.163,-0.114 0.317,-0.114 l 5.156,0 c 2.003,0 3.225,0.455 3.966,1.414 1.092,1.309 1.127,3.422 1.127,6.662 l 0,4.423 c 0,3.24 -0.035,5.353 -1.127,6.662 C 8.381,-0.456 7.159,0 5.156,0 L 0,0 z m 2.841,-2.406 1.816,0 c 0.805,0 1.283,-0.131 1.655,-0.576 0.572,-0.686 0.622,-2.073 0.622,-4.869 l 0,-4.875 c 0,-2.796 -0.05,-4.182 -0.622,-4.869 C 5.94,-18.04 5.462,-18.17 4.657,-18.17 l -1.816,0 0,15.764 z m 31.318,1.973 c 0,0.156 -0.047,0.249 -0.115,0.318 C 33.977,-0.047 33.882,0 33.728,0 l -2.411,0 c -0.154,0 -0.249,-0.047 -0.316,-0.115 -0.068,-0.069 -0.115,-0.162 -0.115,-0.318 l 0,-14.552 c 0,-1.519 -0.115,-2.422 -0.608,-2.964 -0.335,-0.367 -0.808,-0.547 -1.472,-0.547 -0.602,0 -1.058,0.167 -1.407,0.55 -0.466,0.514 -0.609,1.387 -0.609,2.961 l 0,14.552 c 0,0.156 -0.046,0.249 -0.114,0.318 C 26.607,-0.047 26.513,0 26.357,0 L 23.949,0 C 23.794,0 23.7,-0.047 23.632,-0.115 23.563,-0.184 23.518,-0.277 23.518,-0.433 l 0,-14.557 c 0,-2.119 0.288,-3.448 1.129,-4.373 0.875,-0.963 2.198,-1.473 4.202,-1.473 2.027,0 3.332,0.542 4.134,1.475 0.944,1.096 1.176,2.403 1.176,4.371 l 0,14.557 z M 18.6,-20.145 c 0,-0.154 -0.046,-0.249 -0.115,-0.317 -0.068,-0.068 -0.162,-0.114 -0.316,-0.114 l -2.637,0 c -0.154,0 -0.249,0.046 -0.316,0.114 -0.07,0.068 -0.114,0.163 -0.114,0.317 l 0,17.544 -3.097,0 c -0.155,0 -0.248,0.046 -0.317,0.114 -0.07,0.068 -0.115,0.163 -0.115,0.317 l 0,1.737 c 0,0.156 0.045,0.249 0.115,0.318 C 11.757,-0.047 11.85,0 12.005,0 l 9.691,0 c 0.155,0 0.249,-0.047 0.318,-0.115 0.067,-0.069 0.114,-0.162 0.114,-0.318 l 0,-1.737 c 0,-0.154 -0.047,-0.249 -0.114,-0.317 -0.069,-0.068 -0.163,-0.114 -0.318,-0.114 l -3.096,0 0,-17.544 z"
             style="fill:#000000;fill-opacity:1;fill-rule:nonzero;stroke:none"
             id="path22"
             inkscape:connector-curvature="0" />
        </g>
        <g
           id="g24"
           transform="translate(416.6045,417.5732)"
           style="fill:#000000;fill-opacity:1">
          <path
             d="m 0,0 -8.267,-4.338 c -10.703,4.163 -11.605,4.163 -22.31,0 L -38.843,0 l 8.266,4.341 c 10.705,-4.165 11.607,-4.165 22.31,0 L 0,0 z m 0,-10.725 -8.267,-4.338 c -10.703,4.163 -11.605,4.163 -22.31,0 l -8.266,4.338 8.266,4.34 c 10.705,-4.164 11.607,-4.164 22.31,0 L 0,-10.725 z m 0,-10.724 -8.267,-4.339 c -10.703,4.163 -11.605,4.163 -22.31,0 l -8.266,4.339 8.266,4.338 c 10.705,-4.163 11.607,-4.163 22.31,0 L 0,-21.449"
             style="fill:#000000;fill-opacity:1;fill-rule:nonzero;stroke:none"
             id="path26"
             inkscape:connector-curvature="0" />
        </g>
      </g>
    </g>
  </g>
</svg>
